<svg width="600" height="600" viewBox="0 0 600 600" fill="none" xmlns="http://www.w3.org/2000/svg">
<g clip-path="url(#clip0_8_12)">
<g filter="url(#filter0_d_8_12)">
<circle cx="467" cy="426" r="103" fill="black"/>
</g>
<path d="M408.351 386.718C408.351 390.48 411.105 393.108 414.615 393.108C417.333 393.108 419.493 391.758 420.429 389.346H418.467C417.783 390.84 416.451 391.686 414.615 391.686C411.987 391.686 410.025 389.778 410.025 386.718C410.025 383.64 411.987 381.732 414.615 381.732C416.451 381.732 417.783 382.578 418.467 384.09H420.429C419.493 381.66 417.333 380.292 414.615 380.292C411.105 380.292 408.351 382.956 408.351 386.718ZM424.505 387.636C424.505 385.35 425.693 384.648 427.259 384.648H427.691V382.956C426.125 382.956 425.063 383.64 424.505 384.738V383.136H422.867V393H424.505V387.636ZM433.776 384.36C435.468 384.36 436.908 385.422 436.89 387.348H430.662C430.842 385.422 432.174 384.36 433.776 384.36ZM438.384 389.958H436.62C436.26 391.02 435.324 391.776 433.848 391.776C432.174 391.776 430.77 390.678 430.644 388.68H438.528C438.564 388.338 438.582 388.05 438.582 387.69C438.582 384.99 436.71 382.974 433.848 382.974C430.968 382.974 428.97 384.936 428.97 388.05C428.97 391.182 431.04 393.162 433.848 393.162C436.296 393.162 437.88 391.758 438.384 389.958ZM440.132 388.032C440.132 391.092 442.166 393.162 444.794 393.162C446.612 393.162 447.89 392.226 448.484 391.164V393H450.14V383.136H448.484V384.936C447.908 383.91 446.648 382.974 444.812 382.974C442.166 382.974 440.132 384.954 440.132 388.032ZM448.484 388.05C448.484 390.372 446.936 391.722 445.136 391.722C443.336 391.722 441.806 390.354 441.806 388.032C441.806 385.71 443.336 384.396 445.136 384.396C446.936 384.396 448.484 385.764 448.484 388.05ZM453.268 390.3C453.268 392.28 454.258 393 456.004 393H457.48V391.614H456.274C455.266 391.614 454.906 391.272 454.906 390.3V384.486H457.48V383.136H454.906V380.652H453.268V383.136H451.99V384.486H453.268V390.3ZM463.659 384.36C465.351 384.36 466.791 385.422 466.773 387.348H460.545C460.725 385.422 462.057 384.36 463.659 384.36ZM468.267 389.958H466.503C466.143 391.02 465.207 391.776 463.731 391.776C462.057 391.776 460.653 390.678 460.527 388.68H468.411C468.447 388.338 468.465 388.05 468.465 387.69C468.465 384.99 466.593 382.974 463.731 382.974C460.851 382.974 458.853 384.936 458.853 388.05C458.853 391.182 460.923 393.162 463.731 393.162C466.179 393.162 467.763 391.758 468.267 389.958ZM475.786 390.3C475.786 392.28 476.776 393 478.522 393H479.998V391.614H478.792C477.784 391.614 477.424 391.272 477.424 390.3V384.486H479.998V383.136H477.424V380.652H475.786V383.136H474.508V384.486H475.786V390.3ZM486.177 384.36C487.869 384.36 489.309 385.422 489.291 387.348H483.063C483.243 385.422 484.575 384.36 486.177 384.36ZM490.785 389.958H489.021C488.661 391.02 487.725 391.776 486.249 391.776C484.575 391.776 483.171 390.678 483.045 388.68H490.929C490.965 388.338 490.983 388.05 490.983 387.69C490.983 384.99 489.111 382.974 486.249 382.974C483.369 382.974 481.371 384.936 481.371 388.05C481.371 391.182 483.441 393.162 486.249 393.162C488.697 393.162 490.281 391.758 490.785 389.958ZM494.783 387.636C494.783 385.35 495.971 384.648 497.537 384.648H497.969V382.956C496.403 382.956 495.341 383.64 494.783 384.738V383.136H493.145V393H494.783V387.636ZM514.098 393H515.718V387.186C515.718 384.36 513.972 382.956 511.722 382.956C510.21 382.956 508.806 383.73 508.23 385.152C507.582 383.676 506.232 382.956 504.612 382.956C503.316 382.956 502.146 383.514 501.498 384.558V383.136H499.86V393H501.498V387.564C501.498 385.44 502.632 384.378 504.288 384.378C505.908 384.378 506.988 385.404 506.988 387.42V393H508.608V387.564C508.608 385.44 509.742 384.378 511.398 384.378C513.018 384.378 514.098 385.404 514.098 387.42V393ZM525.497 390.318C525.425 386.79 519.701 388.068 519.701 385.728C519.701 384.936 520.421 384.36 521.627 384.36C522.941 384.36 523.697 385.08 523.769 386.07H525.407C525.299 384.144 523.859 382.974 521.681 382.974C519.485 382.974 518.063 384.216 518.063 385.728C518.063 389.4 523.895 388.122 523.895 390.318C523.895 391.128 523.175 391.776 521.879 391.776C520.493 391.776 519.647 391.056 519.557 390.102H517.865C517.973 391.902 519.593 393.162 521.897 393.162C524.075 393.162 525.497 391.938 525.497 390.318ZM400.946 420H402.584V411.486H404.654V410.136H402.584V409.434C402.584 408.156 403.07 407.616 404.546 407.616V406.248C402.026 406.248 400.946 407.238 400.946 409.434V410.136H399.668V411.486H400.946V420ZM415.924 415.05C415.924 411.936 413.746 409.974 410.938 409.974C408.148 409.974 405.952 411.936 405.952 415.05C405.952 418.182 408.076 420.162 410.866 420.162C413.674 420.162 415.924 418.182 415.924 415.05ZM407.626 415.05C407.626 412.566 409.192 411.396 410.92 411.396C412.612 411.396 414.25 412.566 414.25 415.05C414.25 417.552 412.576 418.722 410.866 418.722C409.156 418.722 407.626 417.552 407.626 415.05ZM419.715 414.636C419.715 412.35 420.903 411.648 422.469 411.648H422.901V409.956C421.335 409.956 420.273 410.64 419.715 411.738V410.136H418.077V420H419.715V414.636ZM428.979 415.05C428.979 418.182 430.977 420.162 433.785 420.162C436.233 420.162 437.835 418.794 438.339 416.832H436.575C436.215 418.074 435.243 418.776 433.785 418.776C431.985 418.776 430.653 417.498 430.653 415.05C430.653 412.638 431.985 411.36 433.785 411.36C435.243 411.36 436.233 412.116 436.575 413.304H438.339C437.835 411.234 436.233 409.974 433.785 409.974C430.977 409.974 428.979 411.954 428.979 415.05ZM442.163 414.636C442.163 412.35 443.351 411.648 444.917 411.648H445.349V409.956C443.783 409.956 442.721 410.64 442.163 411.738V410.136H440.525V420H442.163V414.636ZM456.6 415.05C456.6 411.936 454.422 409.974 451.614 409.974C448.824 409.974 446.628 411.936 446.628 415.05C446.628 418.182 448.752 420.162 451.542 420.162C454.35 420.162 456.6 418.182 456.6 415.05ZM448.302 415.05C448.302 412.566 449.868 411.396 451.596 411.396C453.288 411.396 454.926 412.566 454.926 415.05C454.926 417.552 453.252 418.722 451.542 418.722C449.832 418.722 448.302 417.552 448.302 415.05ZM465.845 417.318C465.773 413.79 460.049 415.068 460.049 412.728C460.049 411.936 460.769 411.36 461.975 411.36C463.289 411.36 464.045 412.08 464.117 413.07H465.755C465.647 411.144 464.207 409.974 462.029 409.974C459.833 409.974 458.411 411.216 458.411 412.728C458.411 416.4 464.243 415.122 464.243 417.318C464.243 418.128 463.523 418.776 462.227 418.776C460.841 418.776 459.995 418.056 459.905 417.102H458.213C458.321 418.902 459.941 420.162 462.245 420.162C464.423 420.162 465.845 418.938 465.845 417.318ZM475.249 417.318C475.177 413.79 469.453 415.068 469.453 412.728C469.453 411.936 470.173 411.36 471.379 411.36C472.693 411.36 473.449 412.08 473.521 413.07H475.159C475.051 411.144 473.611 409.974 471.433 409.974C469.237 409.974 467.815 411.216 467.815 412.728C467.815 416.4 473.647 415.122 473.647 417.318C473.647 418.128 472.927 418.776 471.631 418.776C470.245 418.776 469.399 418.056 469.309 417.102H467.617C467.725 418.902 469.345 420.162 471.649 420.162C473.827 420.162 475.249 418.938 475.249 417.318ZM477.22 414.096H484.402V412.71H477.22V414.096ZM486.864 415.032C486.864 418.092 488.898 420.162 491.544 420.162C493.344 420.162 494.622 419.244 495.216 418.146V420H496.872V406.68H495.216V411.9C494.532 410.766 493.11 409.974 491.562 409.974C488.898 409.974 486.864 411.954 486.864 415.032ZM495.216 415.05C495.216 417.372 493.668 418.722 491.868 418.722C490.068 418.722 488.538 417.354 488.538 415.032C488.538 412.71 490.068 411.396 491.868 411.396C493.668 411.396 495.216 412.764 495.216 415.05ZM499.028 415.032C499.028 418.092 501.062 420.162 503.69 420.162C505.508 420.162 506.786 419.226 507.38 418.164V420H509.036V410.136H507.38V411.936C506.804 410.91 505.544 409.974 503.708 409.974C501.062 409.974 499.028 411.954 499.028 415.032ZM507.38 415.05C507.38 417.372 505.832 418.722 504.032 418.722C502.232 418.722 500.702 417.354 500.702 415.032C500.702 412.71 502.232 411.396 504.032 411.396C505.832 411.396 507.38 412.764 507.38 415.05ZM513.442 411.954V410.136H511.804V424.68H513.442V418.182C514.054 419.19 515.332 420.162 517.132 420.162C519.778 420.162 521.812 418.092 521.812 415.032C521.812 411.954 519.778 409.974 517.132 409.974C515.332 409.974 514.036 410.91 513.442 411.954ZM520.138 415.032C520.138 417.354 518.608 418.722 516.79 418.722C515.008 418.722 513.442 417.372 513.442 415.05C513.442 412.764 515.008 411.396 516.79 411.396C518.608 411.396 520.138 412.71 520.138 415.032ZM525.606 411.954V410.136H523.968V424.68H525.606V418.182C526.218 419.19 527.496 420.162 529.296 420.162C531.942 420.162 533.976 418.092 533.976 415.032C533.976 411.954 531.942 409.974 529.296 409.974C527.496 409.974 526.2 410.91 525.606 411.954ZM532.302 415.032C532.302 417.354 530.772 418.722 528.954 418.722C527.172 418.722 525.606 417.372 525.606 415.05C525.606 412.764 527.172 411.396 528.954 411.396C530.772 411.396 532.302 412.71 532.302 415.032ZM416.636 447H418.274V437.136H416.636V447ZM417.482 435.534C418.076 435.534 418.562 435.048 418.562 434.418C418.562 433.788 418.076 433.302 417.482 433.302C416.852 433.302 416.366 433.788 416.366 434.418C416.366 435.048 416.852 435.534 417.482 435.534ZM428.284 447H429.904V441.186C429.904 438.36 428.158 436.956 425.872 436.956C424.54 436.956 423.352 437.514 422.704 438.54V437.136H421.066V447H422.704V441.546C422.704 439.422 423.856 438.378 425.53 438.378C427.186 438.378 428.284 439.404 428.284 441.42V447ZM431.409 437.136L435.279 447H437.187L441.057 437.136H439.311L436.251 445.488L433.173 437.136H431.409ZM446.863 438.36C448.555 438.36 449.995 439.422 449.977 441.348H443.749C443.929 439.422 445.261 438.36 446.863 438.36ZM451.471 443.958H449.707C449.347 445.02 448.411 445.776 446.935 445.776C445.261 445.776 443.857 444.678 443.731 442.68H451.615C451.651 442.338 451.669 442.05 451.669 441.69C451.669 438.99 449.797 436.974 446.935 436.974C444.055 436.974 442.057 438.936 442.057 442.05C442.057 445.182 444.127 447.162 446.935 447.162C449.383 447.162 450.967 445.758 451.471 443.958ZM460.923 444.318C460.851 440.79 455.127 442.068 455.127 439.728C455.127 438.936 455.847 438.36 457.053 438.36C458.367 438.36 459.123 439.08 459.195 440.07H460.833C460.725 438.144 459.285 436.974 457.107 436.974C454.911 436.974 453.489 438.216 453.489 439.728C453.489 443.4 459.321 442.122 459.321 444.318C459.321 445.128 458.601 445.776 457.305 445.776C455.919 445.776 455.073 445.056 454.983 444.102H453.291C453.399 445.902 455.019 447.162 457.323 447.162C459.501 447.162 460.923 445.938 460.923 444.318ZM463.596 444.3C463.596 446.28 464.586 447 466.332 447H467.808V445.614H466.602C465.594 445.614 465.234 445.272 465.234 444.3V438.486H467.808V437.136H465.234V434.652H463.596V437.136H462.318V438.486H463.596V444.3ZM469.792 447H471.43V437.136H469.792V447ZM470.638 435.534C471.232 435.534 471.718 435.048 471.718 434.418C471.718 433.788 471.232 433.302 470.638 433.302C470.008 433.302 469.522 433.788 469.522 434.418C469.522 435.048 470.008 435.534 470.638 435.534ZM481.44 447H483.06V441.186C483.06 438.36 481.314 436.956 479.028 436.956C477.696 436.956 476.508 437.514 475.86 438.54V437.136H474.222V447H475.86V441.546C475.86 439.422 477.012 438.378 478.686 438.378C480.342 438.378 481.44 439.404 481.44 441.42V447ZM485.124 442.032C485.124 445.092 487.158 447.162 489.804 447.162C491.604 447.162 492.882 446.208 493.476 445.146V447.216C493.476 449.322 492.162 450.438 490.416 450.438C488.796 450.438 487.626 449.628 487.266 448.44H485.646C485.97 450.546 487.824 451.86 490.416 451.86C493.314 451.86 495.132 449.934 495.132 447.216V437.136H493.476V438.936C492.9 437.874 491.604 436.974 489.804 436.974C487.158 436.974 485.124 438.954 485.124 442.032ZM493.476 442.05C493.476 444.372 491.928 445.722 490.128 445.722C488.328 445.722 486.798 444.354 486.798 442.032C486.798 439.71 488.328 438.396 490.128 438.396C491.928 438.396 493.476 439.764 493.476 442.05ZM512.059 442.05C512.059 438.936 509.881 436.974 507.073 436.974C504.283 436.974 502.087 438.936 502.087 442.05C502.087 445.182 504.211 447.162 507.001 447.162C509.809 447.162 512.059 445.182 512.059 442.05ZM503.761 442.05C503.761 439.566 505.327 438.396 507.055 438.396C508.747 438.396 510.385 439.566 510.385 442.05C510.385 444.552 508.711 445.722 507.001 445.722C505.291 445.722 503.761 444.552 503.761 442.05ZM514.518 447H516.156V438.486H518.226V437.136H516.156V436.434C516.156 435.156 516.642 434.616 518.118 434.616V433.248C515.598 433.248 514.518 434.238 514.518 436.434V437.136H513.24V438.486H514.518V447ZM421.452 471.3C421.452 473.28 422.442 474 424.188 474H425.664V472.614H424.458C423.45 472.614 423.09 472.272 423.09 471.3V465.486H425.664V464.136H423.09V461.652H421.452V464.136H420.174V465.486H421.452V471.3ZM429.287 468.636C429.287 466.35 430.475 465.648 432.041 465.648H432.473V463.956C430.907 463.956 429.845 464.64 429.287 465.738V464.136H427.649V474H429.287V468.636ZM438.558 465.36C440.25 465.36 441.69 466.422 441.672 468.348H435.444C435.624 466.422 436.956 465.36 438.558 465.36ZM443.166 470.958H441.402C441.042 472.02 440.106 472.776 438.63 472.776C436.956 472.776 435.552 471.678 435.426 469.68H443.31C443.346 469.338 443.364 469.05 443.364 468.69C443.364 465.99 441.492 463.974 438.63 463.974C435.75 463.974 433.752 465.936 433.752 469.05C433.752 472.182 435.822 474.162 438.63 474.162C441.078 474.162 442.662 472.758 443.166 470.958ZM444.914 469.032C444.914 472.092 446.948 474.162 449.576 474.162C451.394 474.162 452.672 473.226 453.266 472.164V474H454.922V464.136H453.266V465.936C452.69 464.91 451.43 463.974 449.594 463.974C446.948 463.974 444.914 465.954 444.914 469.032ZM453.266 469.05C453.266 471.372 451.718 472.722 449.918 472.722C448.118 472.722 446.588 471.354 446.588 469.032C446.588 466.71 448.118 465.396 449.918 465.396C451.718 465.396 453.266 466.764 453.266 469.05ZM464.782 471.318C464.71 467.79 458.986 469.068 458.986 466.728C458.986 465.936 459.706 465.36 460.912 465.36C462.226 465.36 462.982 466.08 463.054 467.07H464.692C464.584 465.144 463.144 463.974 460.966 463.974C458.77 463.974 457.348 465.216 457.348 466.728C457.348 470.4 463.18 469.122 463.18 471.318C463.18 472.128 462.46 472.776 461.164 472.776C459.778 472.776 458.932 472.056 458.842 471.102H457.15C457.258 472.902 458.878 474.162 461.182 474.162C463.36 474.162 464.782 472.938 464.782 471.318ZM475.842 464.136H474.204V469.554C474.204 471.678 473.07 472.722 471.378 472.722C469.722 472.722 468.624 471.696 468.624 469.698V464.136H467.004V469.914C467.004 472.74 468.786 474.144 471.054 474.144C472.368 474.144 473.574 473.568 474.204 472.542V474H475.842V464.136ZM480.246 468.636C480.246 466.35 481.434 465.648 483 465.648H483.432V463.956C481.866 463.956 480.804 464.64 480.246 465.738V464.136H478.608V474H480.246V468.636ZM485.323 474H486.961V464.136H485.323V474ZM486.169 462.534C486.763 462.534 487.249 462.048 487.249 461.418C487.249 460.788 486.763 460.302 486.169 460.302C485.539 460.302 485.053 460.788 485.053 461.418C485.053 462.048 485.539 462.534 486.169 462.534ZM493.946 465.36C495.638 465.36 497.078 466.422 497.06 468.348H490.832C491.012 466.422 492.344 465.36 493.946 465.36ZM498.554 470.958H496.79C496.43 472.02 495.494 472.776 494.018 472.776C492.344 472.776 490.94 471.678 490.814 469.68H498.698C498.734 469.338 498.752 469.05 498.752 468.69C498.752 465.99 496.88 463.974 494.018 463.974C491.138 463.974 489.14 465.936 489.14 469.05C489.14 472.182 491.21 474.162 494.018 474.162C496.466 474.162 498.05 472.758 498.554 470.958ZM508.006 471.318C507.934 467.79 502.21 469.068 502.21 466.728C502.21 465.936 502.93 465.36 504.136 465.36C505.45 465.36 506.206 466.08 506.278 467.07H507.916C507.808 465.144 506.368 463.974 504.19 463.974C501.994 463.974 500.572 465.216 500.572 466.728C500.572 470.4 506.404 469.122 506.404 471.318C506.404 472.128 505.684 472.776 504.388 472.776C503.002 472.776 502.156 472.056 502.066 471.102H500.374C500.482 472.902 502.102 474.162 504.406 474.162C506.584 474.162 508.006 472.938 508.006 471.318ZM510.877 470.454H512.245L512.443 461.454H510.679L510.877 470.454ZM512.713 472.992C512.713 472.362 512.227 471.876 511.633 471.876C511.003 471.876 510.517 472.362 510.517 472.992C510.517 473.622 511.003 474.108 511.633 474.108C512.227 474.108 512.713 473.622 512.713 472.992Z" fill="white"/>
<g filter="url(#filter1_d_8_12)">
<circle cx="133" cy="426" r="103" fill="black"/>
<path d="M78.148 372.718C78.148 376.48 80.902 379.108 84.412 379.108C87.13 379.108 89.29 377.758 90.226 375.346H88.264C87.58 376.84 86.248 377.686 84.412 377.686C81.784 377.686 79.822 375.778 79.822 372.718C79.822 369.64 81.784 367.732 84.412 367.732C86.248 367.732 87.58 368.578 88.264 370.09H90.226C89.29 367.66 87.13 366.292 84.412 366.292C80.902 366.292 78.148 368.956 78.148 372.718ZM92.6643 379H94.3023V373.546C94.3023 371.422 95.4543 370.378 97.1283 370.378C98.7843 370.378 99.8823 371.404 99.8823 373.42V379H101.502V373.186C101.502 370.36 99.7563 368.956 97.5603 368.956C96.1743 368.956 94.9503 369.514 94.3023 370.558V365.68H92.6643V379ZM103.566 374.032C103.566 377.092 105.6 379.162 108.228 379.162C110.046 379.162 111.324 378.226 111.918 377.164V379H113.574V369.136H111.918V370.936C111.342 369.91 110.082 368.974 108.246 368.974C105.6 368.974 103.566 370.954 103.566 374.032ZM111.918 374.05C111.918 376.372 110.37 377.722 108.57 377.722C106.77 377.722 105.24 376.354 105.24 374.032C105.24 371.71 106.77 370.396 108.57 370.396C110.37 370.396 111.918 371.764 111.918 374.05ZM123.56 379H125.18V373.186C125.18 370.36 123.434 368.956 121.148 368.956C119.816 368.956 118.628 369.514 117.98 370.54V369.136H116.342V379H117.98V373.546C117.98 371.422 119.132 370.378 120.806 370.378C122.462 370.378 123.56 371.404 123.56 373.42V379ZM127.244 374.032C127.244 377.092 129.278 379.162 131.924 379.162C133.724 379.162 135.002 378.208 135.596 377.146V379.216C135.596 381.322 134.282 382.438 132.536 382.438C130.916 382.438 129.746 381.628 129.386 380.44H127.766C128.09 382.546 129.944 383.86 132.536 383.86C135.434 383.86 137.252 381.934 137.252 379.216V369.136H135.596V370.936C135.02 369.874 133.724 368.974 131.924 368.974C129.278 368.974 127.244 370.954 127.244 374.032ZM135.596 374.05C135.596 376.372 134.048 377.722 132.248 377.722C130.448 377.722 128.918 376.354 128.918 374.032C128.918 371.71 130.448 370.396 132.248 370.396C134.048 370.396 135.596 371.764 135.596 374.05ZM144.214 370.36C145.906 370.36 147.346 371.422 147.328 373.348H141.1C141.28 371.422 142.612 370.36 144.214 370.36ZM148.822 375.958H147.058C146.698 377.02 145.762 377.776 144.286 377.776C142.612 377.776 141.208 376.678 141.082 374.68H148.966C149.002 374.338 149.02 374.05 149.02 373.69C149.02 370.99 147.148 368.974 144.286 368.974C141.406 368.974 139.408 370.936 139.408 374.05C139.408 377.182 141.478 379.162 144.286 379.162C146.734 379.162 148.318 377.758 148.822 375.958ZM156.341 376.3C156.341 378.28 157.331 379 159.077 379H160.553V377.614H159.347C158.339 377.614 157.979 377.272 157.979 376.3V370.486H160.553V369.136H157.979V366.652H156.341V369.136H155.063V370.486H156.341V376.3ZM162.537 379H164.175V373.546C164.175 371.422 165.327 370.378 167.001 370.378C168.657 370.378 169.755 371.404 169.755 373.42V379H171.375V373.186C171.375 370.36 169.629 368.956 167.433 368.956C166.047 368.956 164.823 369.514 164.175 370.558V365.68H162.537V379ZM178.245 370.36C179.937 370.36 181.377 371.422 181.359 373.348H175.131C175.311 371.422 176.643 370.36 178.245 370.36ZM182.853 375.958H181.089C180.729 377.02 179.793 377.776 178.317 377.776C176.643 377.776 175.239 376.678 175.113 374.68H182.997C183.033 374.338 183.051 374.05 183.051 373.69C183.051 370.99 181.179 368.974 178.317 368.974C175.437 368.974 173.439 370.936 173.439 374.05C173.439 377.182 175.509 379.162 178.317 379.162C180.765 379.162 182.349 377.758 182.853 375.958ZM62.1216 403.318C62.0496 399.79 56.3256 401.068 56.3256 398.728C56.3256 397.936 57.0456 397.36 58.2516 397.36C59.5656 397.36 60.3216 398.08 60.3936 399.07H62.0316C61.9236 397.144 60.4836 395.974 58.3056 395.974C56.1096 395.974 54.6876 397.216 54.6876 398.728C54.6876 402.4 60.5196 401.122 60.5196 403.318C60.5196 404.128 59.7996 404.776 58.5036 404.776C57.1176 404.776 56.2716 404.056 56.1816 403.102H54.4896C54.5976 404.902 56.2176 406.162 58.5216 406.162C60.6996 406.162 62.1216 404.938 62.1216 403.318ZM64.7939 403.3C64.7939 405.28 65.7839 406 67.5299 406H69.0059V404.614H67.7999C66.7919 404.614 66.4319 404.272 66.4319 403.3V397.486H69.0059V396.136H66.4319V393.652H64.7939V396.136H63.5159V397.486H64.7939V403.3ZM70.3785 401.032C70.3785 404.092 72.4125 406.162 75.0405 406.162C76.8585 406.162 78.1365 405.226 78.7305 404.164V406H80.3865V396.136H78.7305V397.936C78.1545 396.91 76.8945 395.974 75.0585 395.974C72.4125 395.974 70.3785 397.954 70.3785 401.032ZM78.7305 401.05C78.7305 403.372 77.1825 404.722 75.3825 404.722C73.5825 404.722 72.0525 403.354 72.0525 401.032C72.0525 398.71 73.5825 397.396 75.3825 397.396C77.1825 397.396 78.7305 398.764 78.7305 401.05ZM90.3726 406H91.9926V400.186C91.9926 397.36 90.2466 395.956 87.9606 395.956C86.6286 395.956 85.4406 396.514 84.7926 397.54V396.136H83.1546V406H84.7926V400.546C84.7926 398.422 85.9446 397.378 87.6186 397.378C89.2746 397.378 90.3726 398.404 90.3726 400.42V406ZM94.0562 401.032C94.0562 404.092 96.0902 406.162 98.7362 406.162C100.536 406.162 101.814 405.244 102.408 404.146V406H104.064V392.68H102.408V397.9C101.724 396.766 100.302 395.974 98.7542 395.974C96.0902 395.974 94.0562 397.954 94.0562 401.032ZM102.408 401.05C102.408 403.372 100.86 404.722 99.0602 404.722C97.2602 404.722 95.7302 403.354 95.7302 401.032C95.7302 398.71 97.2602 397.396 99.0602 397.396C100.86 397.396 102.408 398.764 102.408 401.05ZM106.22 401.032C106.22 404.092 108.254 406.162 110.882 406.162C112.7 406.162 113.978 405.226 114.572 404.164V406H116.228V396.136H114.572V397.936C113.996 396.91 112.736 395.974 110.9 395.974C108.254 395.974 106.22 397.954 106.22 401.032ZM114.572 401.05C114.572 403.372 113.024 404.722 111.224 404.722C109.424 404.722 107.894 403.354 107.894 401.032C107.894 398.71 109.424 397.396 111.224 397.396C113.024 397.396 114.572 398.764 114.572 401.05ZM120.634 400.636C120.634 398.35 121.822 397.648 123.388 397.648H123.82V395.956C122.254 395.956 121.192 396.64 120.634 397.738V396.136H118.996V406H120.634V400.636ZM125.099 401.032C125.099 404.092 127.133 406.162 129.779 406.162C131.579 406.162 132.857 405.244 133.451 404.146V406H135.107V392.68H133.451V397.9C132.767 396.766 131.345 395.974 129.797 395.974C127.133 395.974 125.099 397.954 125.099 401.032ZM133.451 401.05C133.451 403.372 131.903 404.722 130.103 404.722C128.303 404.722 126.773 403.354 126.773 401.032C126.773 398.71 128.303 397.396 130.103 397.396C131.903 397.396 133.451 398.764 133.451 401.05ZM142.062 401.032C142.062 404.092 144.096 406.162 146.724 406.162C148.542 406.162 149.82 405.226 150.414 404.164V406H152.07V396.136H150.414V397.936C149.838 396.91 148.578 395.974 146.742 395.974C144.096 395.974 142.062 397.954 142.062 401.032ZM150.414 401.05C150.414 403.372 148.866 404.722 147.066 404.722C145.266 404.722 143.736 403.354 143.736 401.032C143.736 398.71 145.266 397.396 147.066 397.396C148.866 397.396 150.414 398.764 150.414 401.05ZM154.226 401.05C154.226 404.182 156.224 406.162 159.032 406.162C161.48 406.162 163.082 404.794 163.586 402.832H161.822C161.462 404.074 160.49 404.776 159.032 404.776C157.232 404.776 155.9 403.498 155.9 401.05C155.9 398.638 157.232 397.36 159.032 397.36C160.49 397.36 161.48 398.116 161.822 399.304H163.586C163.082 397.234 161.48 395.974 159.032 395.974C156.224 395.974 154.226 397.954 154.226 401.05ZM165.16 401.05C165.16 404.182 167.158 406.162 169.966 406.162C172.414 406.162 174.016 404.794 174.52 402.832H172.756C172.396 404.074 171.424 404.776 169.966 404.776C168.166 404.776 166.834 403.498 166.834 401.05C166.834 398.638 168.166 397.36 169.966 397.36C171.424 397.36 172.414 398.116 172.756 399.304H174.52C174.016 397.234 172.414 395.974 169.966 395.974C167.158 395.974 165.16 397.954 165.16 401.05ZM186.065 401.05C186.065 397.936 183.887 395.974 181.079 395.974C178.289 395.974 176.093 397.936 176.093 401.05C176.093 404.182 178.217 406.162 181.007 406.162C183.815 406.162 186.065 404.182 186.065 401.05ZM177.767 401.05C177.767 398.566 179.333 397.396 181.061 397.396C182.753 397.396 184.391 398.566 184.391 401.05C184.391 403.552 182.717 404.722 181.007 404.722C179.297 404.722 177.767 403.552 177.767 401.05ZM189.857 400.636C189.857 398.35 191.045 397.648 192.611 397.648H193.043V395.956C191.477 395.956 190.415 396.64 189.857 397.738V396.136H188.219V406H189.857V400.636ZM202.026 403.318C201.954 399.79 196.23 401.068 196.23 398.728C196.23 397.936 196.95 397.36 198.156 397.36C199.47 397.36 200.226 398.08 200.298 399.07H201.936C201.828 397.144 200.388 395.974 198.21 395.974C196.014 395.974 194.592 397.216 194.592 398.728C194.592 402.4 200.424 401.122 200.424 403.318C200.424 404.128 199.704 404.776 198.408 404.776C197.022 404.776 196.176 404.056 196.086 403.102H194.394C194.502 404.902 196.122 406.162 198.426 406.162C200.604 406.162 202.026 404.938 202.026 403.318ZM211.43 403.318C211.358 399.79 205.634 401.068 205.634 398.728C205.634 397.936 206.354 397.36 207.56 397.36C208.874 397.36 209.63 398.08 209.702 399.07H211.34C211.232 397.144 209.792 395.974 207.614 395.974C205.418 395.974 203.996 397.216 203.996 398.728C203.996 402.4 209.828 401.122 209.828 403.318C209.828 404.128 209.108 404.776 207.812 404.776C206.426 404.776 205.58 404.056 205.49 403.102H203.798C203.906 404.902 205.526 406.162 207.83 406.162C210.008 406.162 211.43 404.938 211.43 403.318ZM84.002 420.454H80.096V433H84.002C88.124 433 90.662 430.642 90.662 426.754C90.662 422.866 88.124 420.454 84.002 420.454ZM81.734 431.65V421.786H84.002C87.278 421.786 88.988 423.694 88.988 426.754C88.988 429.814 87.278 431.65 84.002 431.65H81.734ZM97.0165 424.36C98.7085 424.36 100.149 425.422 100.131 427.348H93.9025C94.0825 425.422 95.4145 424.36 97.0165 424.36ZM101.625 429.958H99.8605C99.5005 431.02 98.5645 431.776 97.0885 431.776C95.4145 431.776 94.0105 430.678 93.8845 428.68H101.769C101.805 428.338 101.823 428.05 101.823 427.69C101.823 424.99 99.9505 422.974 97.0885 422.974C94.2085 422.974 92.2105 424.936 92.2105 428.05C92.2105 431.182 94.2805 433.162 97.0885 433.162C99.5365 433.162 101.121 431.758 101.625 429.958ZM104.291 433H105.929V424.486H107.999V423.136H105.929V422.434C105.929 421.156 106.415 420.616 107.891 420.616V419.248C105.371 419.248 104.291 420.238 104.291 422.434V423.136H103.013V424.486H104.291V433ZM109.908 433H111.546V423.136H109.908V433ZM110.754 421.534C111.348 421.534 111.834 421.048 111.834 420.418C111.834 419.788 111.348 419.302 110.754 419.302C110.124 419.302 109.638 419.788 109.638 420.418C109.638 421.048 110.124 421.534 110.754 421.534ZM121.063 433H122.755L125.131 425.17L127.507 433H129.199L132.277 423.136H130.657L128.425 431.434L126.031 423.136H124.357L121.909 431.416L119.641 423.136H117.967L121.063 433ZM133.903 433H135.541V427.546C135.541 425.422 136.693 424.378 138.367 424.378C140.023 424.378 141.121 425.404 141.121 427.42V433H142.741V427.186C142.741 424.36 140.995 422.956 138.799 422.956C137.413 422.956 136.189 423.514 135.541 424.558V419.68H133.903V433ZM149.61 424.36C151.302 424.36 152.742 425.422 152.724 427.348H146.496C146.676 425.422 148.008 424.36 149.61 424.36ZM154.218 429.958H152.454C152.094 431.02 151.158 431.776 149.682 431.776C148.008 431.776 146.604 430.678 146.478 428.68H154.362C154.398 428.338 154.416 428.05 154.416 427.69C154.416 424.99 152.544 422.974 149.682 422.974C146.802 422.974 144.804 424.936 144.804 428.05C144.804 431.182 146.874 433.162 149.682 433.162C152.13 433.162 153.714 431.758 154.218 429.958ZM163.796 433H165.416V427.186C165.416 424.36 163.67 422.956 161.384 422.956C160.052 422.956 158.864 423.514 158.216 424.54V423.136H156.578V433H158.216V427.546C158.216 425.422 159.368 424.378 161.042 424.378C162.698 424.378 163.796 425.404 163.796 427.42V433ZM172.891 433H174.529V423.136H172.891V433ZM173.737 421.534C174.331 421.534 174.817 421.048 174.817 420.418C174.817 419.788 174.331 419.302 173.737 419.302C173.107 419.302 172.621 419.788 172.621 420.418C172.621 421.048 173.107 421.534 173.737 421.534ZM177.681 430.3C177.681 432.28 178.671 433 180.417 433H181.893V431.614H180.687C179.679 431.614 179.319 431.272 179.319 430.3V424.486H181.893V423.136H179.319V420.652H177.681V423.136H176.403V424.486H177.681V430.3ZM72.4527 455.05C72.4527 458.182 74.4507 460.162 77.2587 460.162C79.7067 460.162 81.3087 458.794 81.8127 456.832H80.0487C79.6887 458.074 78.7167 458.776 77.2587 458.776C75.4587 458.776 74.1267 457.498 74.1267 455.05C74.1267 452.638 75.4587 451.36 77.2587 451.36C78.7167 451.36 79.7067 452.116 80.0487 453.304H81.8127C81.3087 451.234 79.7067 449.974 77.2587 449.974C74.4507 449.974 72.4527 451.954 72.4527 455.05ZM93.3583 455.05C93.3583 451.936 91.1803 449.974 88.3723 449.974C85.5823 449.974 83.3863 451.936 83.3863 455.05C83.3863 458.182 85.5103 460.162 88.3003 460.162C91.1083 460.162 93.3583 458.182 93.3583 455.05ZM85.0603 455.05C85.0603 452.566 86.6263 451.396 88.3543 451.396C90.0463 451.396 91.6843 452.566 91.6843 455.05C91.6843 457.552 90.0103 458.722 88.3003 458.722C86.5903 458.722 85.0603 457.552 85.0603 455.05ZM109.75 460H111.37V454.186C111.37 451.36 109.624 449.956 107.374 449.956C105.862 449.956 104.458 450.73 103.882 452.152C103.234 450.676 101.884 449.956 100.264 449.956C98.968 449.956 97.798 450.514 97.15 451.558V450.136H95.512V460H97.15V454.564C97.15 452.44 98.284 451.378 99.94 451.378C101.56 451.378 102.64 452.404 102.64 454.42V460H104.26V454.564C104.26 452.44 105.394 451.378 107.05 451.378C108.67 451.378 109.75 452.404 109.75 454.42V460ZM118.251 451.36C119.943 451.36 121.383 452.422 121.365 454.348H115.137C115.317 452.422 116.649 451.36 118.251 451.36ZM122.859 456.958H121.095C120.735 458.02 119.799 458.776 118.323 458.776C116.649 458.776 115.245 457.678 115.119 455.68H123.003C123.039 455.338 123.057 455.05 123.057 454.69C123.057 451.99 121.185 449.974 118.323 449.974C115.443 449.974 113.445 451.936 113.445 455.05C113.445 458.182 115.515 460.162 118.323 460.162C120.771 460.162 122.355 458.758 122.859 456.958ZM132.311 457.318C132.239 453.79 126.515 455.068 126.515 452.728C126.515 451.936 127.235 451.36 128.441 451.36C129.755 451.36 130.511 452.08 130.583 453.07H132.221C132.113 451.144 130.673 449.974 128.495 449.974C126.299 449.974 124.877 451.216 124.877 452.728C124.877 456.4 130.709 455.122 130.709 457.318C130.709 458.128 129.989 458.776 128.693 458.776C127.307 458.776 126.461 458.056 126.371 457.102H124.679C124.787 458.902 126.407 460.162 128.711 460.162C130.889 460.162 132.311 458.938 132.311 457.318ZM139.782 457.3C139.782 459.28 140.772 460 142.518 460H143.994V458.614H142.788C141.78 458.614 141.42 458.272 141.42 457.3V451.486H143.994V450.136H141.42V447.652H139.782V450.136H138.504V451.486H139.782V457.3ZM155.339 455.05C155.339 451.936 153.161 449.974 150.353 449.974C147.563 449.974 145.367 451.936 145.367 455.05C145.367 458.182 147.491 460.162 150.281 460.162C153.089 460.162 155.339 458.182 155.339 455.05ZM147.041 455.05C147.041 452.566 148.607 451.396 150.335 451.396C152.027 451.396 153.665 452.566 153.665 455.05C153.665 457.552 151.991 458.722 150.281 458.722C148.571 458.722 147.041 457.552 147.041 455.05ZM161.679 455.032C161.679 458.092 163.713 460.162 166.359 460.162C168.159 460.162 169.437 459.244 170.031 458.146V460H171.687V446.68H170.031V451.9C169.347 450.766 167.925 449.974 166.377 449.974C163.713 449.974 161.679 451.954 161.679 455.032ZM170.031 455.05C170.031 457.372 168.483 458.722 166.683 458.722C164.883 458.722 163.353 457.354 163.353 455.032C163.353 452.71 164.883 451.396 166.683 451.396C168.483 451.396 170.031 452.764 170.031 455.05ZM178.649 451.36C180.341 451.36 181.781 452.422 181.763 454.348H175.535C175.715 452.422 177.047 451.36 178.649 451.36ZM183.257 456.958H181.493C181.133 458.02 180.197 458.776 178.721 458.776C177.047 458.776 175.643 457.678 175.517 455.68H183.401C183.437 455.338 183.455 455.05 183.455 454.69C183.455 451.99 181.583 449.974 178.721 449.974C175.841 449.974 173.843 451.936 173.843 455.05C173.843 458.182 175.913 460.162 178.721 460.162C181.169 460.162 182.753 458.758 183.257 456.958ZM184.447 450.136L188.317 460H190.225L194.095 450.136H192.349L189.289 458.488L186.211 450.136H184.447ZM80.9397 487H82.5777V477.136H80.9397V487ZM81.7857 475.534C82.3797 475.534 82.8657 475.048 82.8657 474.418C82.8657 473.788 82.3797 473.302 81.7857 473.302C81.1557 473.302 80.6697 473.788 80.6697 474.418C80.6697 475.048 81.1557 475.534 81.7857 475.534ZM92.5874 487H94.2074V481.186C94.2074 478.36 92.4614 476.956 90.1754 476.956C88.8434 476.956 87.6554 477.514 87.0074 478.54V477.136H85.3694V487H87.0074V481.546C87.0074 479.422 88.1594 478.378 89.8334 478.378C91.4894 478.378 92.5874 479.404 92.5874 481.42V487ZM97.2431 484.3C97.2431 486.28 98.2331 487 99.9791 487H101.455V485.614H100.249C99.2411 485.614 98.8811 485.272 98.8811 484.3V478.486H101.455V477.136H98.8811V474.652H97.2431V477.136H95.9651V478.486H97.2431V484.3ZM107.634 478.36C109.326 478.36 110.766 479.422 110.748 481.348H104.52C104.7 479.422 106.032 478.36 107.634 478.36ZM112.242 483.958H110.478C110.118 485.02 109.182 485.776 107.706 485.776C106.032 485.776 104.628 484.678 104.502 482.68H112.386C112.422 482.338 112.44 482.05 112.44 481.69C112.44 478.99 110.568 476.974 107.706 476.974C104.826 476.974 102.828 478.936 102.828 482.05C102.828 485.182 104.898 487.162 107.706 487.162C110.154 487.162 111.738 485.758 112.242 483.958ZM116.24 481.636C116.24 479.35 117.428 478.648 118.994 478.648H119.426V476.956C117.86 476.956 116.798 477.64 116.24 478.738V477.136H114.602V487H116.24V481.636ZM120.705 482.032C120.705 485.092 122.739 487.162 125.367 487.162C127.185 487.162 128.463 486.226 129.057 485.164V487H130.713V477.136H129.057V478.936C128.481 477.91 127.221 476.974 125.385 476.974C122.739 476.974 120.705 478.954 120.705 482.032ZM129.057 482.05C129.057 484.372 127.509 485.722 125.709 485.722C123.909 485.722 122.379 484.354 122.379 482.032C122.379 479.71 123.909 478.396 125.709 478.396C127.509 478.396 129.057 479.764 129.057 482.05ZM132.869 482.05C132.869 485.182 134.867 487.162 137.675 487.162C140.123 487.162 141.725 485.794 142.229 483.832H140.465C140.105 485.074 139.133 485.776 137.675 485.776C135.875 485.776 134.543 484.498 134.543 482.05C134.543 479.638 135.875 478.36 137.675 478.36C139.133 478.36 140.123 479.116 140.465 480.304H142.229C141.725 478.234 140.123 476.974 137.675 476.974C134.867 476.974 132.869 478.954 132.869 482.05ZM144.774 484.3C144.774 486.28 145.764 487 147.51 487H148.986V485.614H147.78C146.772 485.614 146.412 485.272 146.412 484.3V478.486H148.986V477.136H146.412V474.652H144.774V477.136H143.496V478.486H144.774V484.3ZM150.971 487H152.609V477.136H150.971V487ZM151.817 475.534C152.411 475.534 152.897 475.048 152.897 474.418C152.897 473.788 152.411 473.302 151.817 473.302C151.187 473.302 150.701 473.788 150.701 474.418C150.701 475.048 151.187 475.534 151.817 475.534ZM164.761 482.05C164.761 478.936 162.583 476.974 159.775 476.974C156.985 476.974 154.789 478.936 154.789 482.05C154.789 485.182 156.913 487.162 159.703 487.162C162.511 487.162 164.761 485.182 164.761 482.05ZM156.463 482.05C156.463 479.566 158.029 478.396 159.757 478.396C161.449 478.396 163.087 479.566 163.087 482.05C163.087 484.552 161.413 485.722 159.703 485.722C157.993 485.722 156.463 484.552 156.463 482.05ZM174.132 487H175.752V481.186C175.752 478.36 174.006 476.956 171.72 476.956C170.388 476.956 169.2 477.514 168.552 478.54V477.136H166.914V487H168.552V481.546C168.552 479.422 169.704 478.378 171.378 478.378C173.034 478.378 174.132 479.404 174.132 481.42V487ZM185.52 484.318C185.448 480.79 179.724 482.068 179.724 479.728C179.724 478.936 180.444 478.36 181.65 478.36C182.964 478.36 183.72 479.08 183.792 480.07H185.43C185.322 478.144 183.882 476.974 181.704 476.974C179.508 476.974 178.086 478.216 178.086 479.728C178.086 483.4 183.918 482.122 183.918 484.318C183.918 485.128 183.198 485.776 181.902 485.776C180.516 485.776 179.67 485.056 179.58 484.102H177.888C177.996 485.902 179.616 487.162 181.92 487.162C184.098 487.162 185.52 485.938 185.52 484.318Z" fill="white"/>
</g>
<g filter="url(#filter2_d_8_12)">
<circle cx="300" cy="151" r="103" fill="black"/>
<path d="M262.23 103.31C258.702 103.31 255.93 105.956 255.93 109.718C255.93 113.48 258.702 116.108 262.23 116.108C265.632 116.108 268.098 113.606 268.386 110.492V109.232H261.636V110.564H266.64C266.388 113.048 264.696 114.632 262.23 114.632C259.584 114.632 257.604 112.724 257.604 109.718C257.604 106.694 259.584 104.786 262.23 104.786C263.994 104.786 265.362 105.632 266.046 107.09H268.008C267.072 104.678 264.876 103.31 262.23 103.31ZM272.19 110.636C272.19 108.35 273.378 107.648 274.944 107.648H275.376V105.956C273.81 105.956 272.748 106.64 272.19 107.738V106.136H270.552V116H272.19V110.636ZM286.627 111.05C286.627 107.936 284.449 105.974 281.641 105.974C278.851 105.974 276.655 107.936 276.655 111.05C276.655 114.182 278.779 116.162 281.569 116.162C284.377 116.162 286.627 114.182 286.627 111.05ZM278.329 111.05C278.329 108.566 279.895 107.396 281.623 107.396C283.315 107.396 284.953 108.566 284.953 111.05C284.953 113.552 283.279 114.722 281.569 114.722C279.859 114.722 278.329 113.552 278.329 111.05ZM290.707 116H292.399L294.775 108.17L297.151 116H298.843L301.921 106.136H300.301L298.069 114.434L295.675 106.136H294.001L291.553 114.416L289.285 106.136H287.611L290.707 116ZM312.089 114.128L308.993 106.136H307.175L311.153 115.892L309.209 120.644H310.901L316.841 106.136H315.149L312.089 114.128ZM327.848 111.05C327.848 107.936 325.67 105.974 322.862 105.974C320.072 105.974 317.876 107.936 317.876 111.05C317.876 114.182 320 116.162 322.79 116.162C325.598 116.162 327.848 114.182 327.848 111.05ZM319.55 111.05C319.55 108.566 321.116 107.396 322.844 107.396C324.536 107.396 326.174 108.566 326.174 111.05C326.174 113.552 324.5 114.722 322.79 114.722C321.08 114.722 319.55 113.552 319.55 111.05ZM338.749 106.136H337.111V111.554C337.111 113.678 335.977 114.722 334.285 114.722C332.629 114.722 331.531 113.696 331.531 111.698V106.136H329.911V111.914C329.911 114.74 331.693 116.144 333.961 116.144C335.275 116.144 336.481 115.568 337.111 114.542V116H338.749V106.136ZM343.153 110.636C343.153 108.35 344.341 107.648 345.907 107.648H346.339V105.956C344.773 105.956 343.711 106.64 343.153 107.738V106.136H341.515V116H343.153V110.636ZM251.368 133.136H249.73V138.554C249.73 140.678 248.596 141.722 246.904 141.722C245.248 141.722 244.15 140.696 244.15 138.698V133.136H242.53V138.914C242.53 141.74 244.312 143.144 246.58 143.144C247.894 143.144 249.1 142.568 249.73 141.542V143H251.368V133.136ZM261.226 140.318C261.154 136.79 255.43 138.068 255.43 135.728C255.43 134.936 256.15 134.36 257.356 134.36C258.67 134.36 259.426 135.08 259.498 136.07H261.136C261.028 134.144 259.588 132.974 257.41 132.974C255.214 132.974 253.792 134.216 253.792 135.728C253.792 139.4 259.624 138.122 259.624 140.318C259.624 141.128 258.904 141.776 257.608 141.776C256.222 141.776 255.376 141.056 255.286 140.102H253.594C253.702 141.902 255.322 143.162 257.626 143.162C259.804 143.162 261.226 141.938 261.226 140.318ZM267.732 134.36C269.424 134.36 270.864 135.422 270.846 137.348H264.618C264.798 135.422 266.13 134.36 267.732 134.36ZM272.34 139.958H270.576C270.216 141.02 269.28 141.776 267.804 141.776C266.13 141.776 264.726 140.678 264.6 138.68H272.484C272.52 138.338 272.538 138.05 272.538 137.69C272.538 134.99 270.666 132.974 267.804 132.974C264.924 132.974 262.926 134.936 262.926 138.05C262.926 141.182 264.996 143.162 267.804 143.162C270.252 143.162 271.836 141.758 272.34 139.958ZM276.338 137.636C276.338 135.35 277.526 134.648 279.092 134.648H279.524V132.956C277.958 132.956 276.896 133.64 276.338 134.738V133.136H274.7V143H276.338V137.636ZM283.053 134.972V129.68H281.415V143H283.053V141.182C283.665 142.262 284.943 143.162 286.743 143.162C289.389 143.162 291.423 141.092 291.423 138.032C291.423 134.954 289.407 132.974 286.743 132.974C284.997 132.974 283.683 133.874 283.053 134.972ZM289.749 138.032C289.749 140.354 288.219 141.722 286.401 141.722C284.619 141.722 283.053 140.372 283.053 138.05C283.053 135.764 284.619 134.396 286.401 134.396C288.219 134.396 289.749 135.71 289.749 138.032ZM292.967 138.032C292.967 141.092 295.001 143.162 297.629 143.162C299.447 143.162 300.725 142.226 301.319 141.164V143H302.975V133.136H301.319V134.936C300.743 133.91 299.483 132.974 297.647 132.974C295.001 132.974 292.967 134.954 292.967 138.032ZM301.319 138.05C301.319 140.372 299.771 141.722 297.971 141.722C296.171 141.722 294.641 140.354 294.641 138.032C294.641 135.71 296.171 134.396 297.971 134.396C299.771 134.396 301.319 135.764 301.319 138.05ZM312.835 140.318C312.763 136.79 307.039 138.068 307.039 135.728C307.039 134.936 307.759 134.36 308.965 134.36C310.279 134.36 311.035 135.08 311.107 136.07H312.745C312.637 134.144 311.197 132.974 309.019 132.974C306.823 132.974 305.401 134.216 305.401 135.728C305.401 139.4 311.233 138.122 311.233 140.318C311.233 141.128 310.513 141.776 309.217 141.776C307.831 141.776 306.985 141.056 306.895 140.102H305.203C305.311 141.902 306.931 143.162 309.235 143.162C311.413 143.162 312.835 141.938 312.835 140.318ZM319.342 134.36C321.034 134.36 322.474 135.422 322.456 137.348H316.228C316.408 135.422 317.74 134.36 319.342 134.36ZM323.95 139.958H322.186C321.826 141.02 320.89 141.776 319.414 141.776C317.74 141.776 316.336 140.678 316.21 138.68H324.094C324.13 138.338 324.148 138.05 324.148 137.69C324.148 134.99 322.276 132.974 319.414 132.974C316.534 132.974 314.536 134.936 314.536 138.05C314.536 141.182 316.606 143.162 319.414 143.162C321.862 143.162 323.446 141.758 323.95 139.958ZM330.497 138.032C330.497 141.092 332.531 143.162 335.159 143.162C336.977 143.162 338.255 142.226 338.849 141.164V143H340.505V133.136H338.849V134.936C338.273 133.91 337.013 132.974 335.177 132.974C332.531 132.974 330.497 134.954 330.497 138.032ZM338.849 138.05C338.849 140.372 337.301 141.722 335.501 141.722C333.701 141.722 332.171 140.354 332.171 138.032C332.171 135.71 333.701 134.396 335.501 134.396C337.301 134.396 338.849 135.764 338.849 138.05ZM350.491 143H352.111V137.186C352.111 134.36 350.365 132.956 348.079 132.956C346.747 132.956 345.559 133.514 344.911 134.54V133.136H343.273V143H344.911V137.546C344.911 135.422 346.063 134.378 347.737 134.378C349.393 134.378 350.491 135.404 350.491 137.42V143ZM354.174 138.032C354.174 141.092 356.208 143.162 358.854 143.162C360.654 143.162 361.932 142.244 362.526 141.146V143H364.182V129.68H362.526V134.9C361.842 133.766 360.42 132.974 358.872 132.974C356.208 132.974 354.174 134.954 354.174 138.032ZM362.526 138.05C362.526 140.372 360.978 141.722 359.178 141.722C357.378 141.722 355.848 140.354 355.848 138.032C355.848 135.71 357.378 134.396 359.178 134.396C360.978 134.396 362.526 135.764 362.526 138.05ZM257.851 165.05C257.851 161.936 255.673 159.974 252.865 159.974C250.075 159.974 247.879 161.936 247.879 165.05C247.879 168.182 250.003 170.162 252.793 170.162C255.601 170.162 257.851 168.182 257.851 165.05ZM249.553 165.05C249.553 162.566 251.119 161.396 252.847 161.396C254.539 161.396 256.177 162.566 256.177 165.05C256.177 167.552 254.503 168.722 252.793 168.722C251.083 168.722 249.553 167.552 249.553 165.05ZM268.753 160.136H267.115V165.554C267.115 167.678 265.981 168.722 264.289 168.722C262.633 168.722 261.535 167.696 261.535 165.698V160.136H259.915V165.914C259.915 168.74 261.697 170.144 263.965 170.144C265.279 170.144 266.485 169.568 267.115 168.542V170H268.753V160.136ZM273.157 164.636C273.157 162.35 274.345 161.648 275.911 161.648H276.343V159.956C274.777 159.956 273.715 160.64 273.157 161.738V160.136H271.519V170H273.157V164.636ZM283.392 167.3C283.392 169.28 284.382 170 286.128 170H287.604V168.614H286.398C285.39 168.614 285.03 168.272 285.03 167.3V161.486H287.604V160.136H285.03V157.652H283.392V160.136H282.114V161.486H283.392V167.3ZM289.589 170H291.227V164.546C291.227 162.422 292.379 161.378 294.053 161.378C295.709 161.378 296.807 162.404 296.807 164.42V170H298.427V164.186C298.427 161.36 296.681 159.956 294.485 159.956C293.099 159.956 291.875 160.514 291.227 161.558V156.68H289.589V170ZM302.741 164.636C302.741 162.35 303.929 161.648 305.495 161.648H305.927V159.956C304.361 159.956 303.299 160.64 302.741 161.738V160.136H301.103V170H302.741V164.636ZM317.178 165.05C317.178 161.936 315 159.974 312.192 159.974C309.402 159.974 307.206 161.936 307.206 165.05C307.206 168.182 309.33 170.162 312.12 170.162C314.928 170.162 317.178 168.182 317.178 165.05ZM308.88 165.05C308.88 162.566 310.446 161.396 312.174 161.396C313.866 161.396 315.504 162.566 315.504 165.05C315.504 167.552 313.83 168.722 312.12 168.722C310.41 168.722 308.88 167.552 308.88 165.05ZM328.079 160.136H326.441V165.554C326.441 167.678 325.307 168.722 323.615 168.722C321.959 168.722 320.861 167.696 320.861 165.698V160.136H319.241V165.914C319.241 168.74 321.023 170.144 323.291 170.144C324.605 170.144 325.811 169.568 326.441 168.542V170H328.079V160.136ZM330.233 165.032C330.233 168.092 332.267 170.162 334.913 170.162C336.713 170.162 337.991 169.208 338.585 168.146V170.216C338.585 172.322 337.271 173.438 335.525 173.438C333.905 173.438 332.735 172.628 332.375 171.44H330.755C331.079 173.546 332.933 174.86 335.525 174.86C338.423 174.86 340.241 172.934 340.241 170.216V160.136H338.585V161.936C338.009 160.874 336.713 159.974 334.913 159.974C332.267 159.974 330.233 161.954 330.233 165.032ZM338.585 165.05C338.585 167.372 337.037 168.722 335.237 168.722C333.437 168.722 331.907 167.354 331.907 165.032C331.907 162.71 333.437 161.396 335.237 161.396C337.037 161.396 338.585 162.764 338.585 165.05ZM343.009 170H344.647V164.546C344.647 162.422 345.799 161.378 347.473 161.378C349.129 161.378 350.227 162.404 350.227 164.42V170H351.847V164.186C351.847 161.36 350.101 159.956 347.905 159.956C346.519 159.956 345.295 160.514 344.647 161.558V156.68H343.009V170ZM354.883 167.3C354.883 169.28 355.873 170 357.619 170H359.095V168.614H357.889C356.881 168.614 356.521 168.272 356.521 167.3V161.486H359.095V160.136H356.521V157.652H354.883V160.136H353.605V161.486H354.883V167.3ZM249.409 188.954V187.136H247.771V201.68H249.409V195.182C250.021 196.19 251.299 197.162 253.099 197.162C255.745 197.162 257.779 195.092 257.779 192.032C257.779 188.954 255.745 186.974 253.099 186.974C251.299 186.974 250.003 187.91 249.409 188.954ZM256.105 192.032C256.105 194.354 254.575 195.722 252.757 195.722C250.975 195.722 249.409 194.372 249.409 192.05C249.409 189.764 250.975 188.396 252.757 188.396C254.575 188.396 256.105 189.71 256.105 192.032ZM261.573 191.636C261.573 189.35 262.761 188.648 264.327 188.648H264.759V186.956C263.193 186.956 262.131 187.64 261.573 188.738V187.136H259.935V197H261.573V191.636ZM276.01 192.05C276.01 188.936 273.832 186.974 271.024 186.974C268.234 186.974 266.038 188.936 266.038 192.05C266.038 195.182 268.162 197.162 270.952 197.162C273.76 197.162 276.01 195.182 276.01 192.05ZM267.712 192.05C267.712 189.566 269.278 188.396 271.006 188.396C272.698 188.396 274.336 189.566 274.336 192.05C274.336 194.552 272.662 195.722 270.952 195.722C269.242 195.722 267.712 194.552 267.712 192.05ZM292.401 197H294.021V191.186C294.021 188.36 292.275 186.956 290.025 186.956C288.513 186.956 287.109 187.73 286.533 189.152C285.885 187.676 284.535 186.956 282.915 186.956C281.619 186.956 280.449 187.514 279.801 188.558V187.136H278.163V197H279.801V191.564C279.801 189.44 280.935 188.378 282.591 188.378C284.211 188.378 285.291 189.404 285.291 191.42V197H286.911V191.564C286.911 189.44 288.045 188.378 289.701 188.378C291.321 188.378 292.401 189.404 292.401 191.42V197ZM306.068 192.05C306.068 188.936 303.89 186.974 301.082 186.974C298.292 186.974 296.096 188.936 296.096 192.05C296.096 195.182 298.22 197.162 301.01 197.162C303.818 197.162 306.068 195.182 306.068 192.05ZM297.77 192.05C297.77 189.566 299.336 188.396 301.064 188.396C302.756 188.396 304.394 189.566 304.394 192.05C304.394 194.552 302.72 195.722 301.01 195.722C299.3 195.722 297.77 194.552 297.77 192.05ZM308.582 194.3C308.582 196.28 309.572 197 311.318 197H312.794V195.614H311.588C310.58 195.614 310.22 195.272 310.22 194.3V188.486H312.794V187.136H310.22V184.652H308.582V187.136H307.304V188.486H308.582V194.3ZM314.779 197H316.417V187.136H314.779V197ZM315.625 185.534C316.219 185.534 316.705 185.048 316.705 184.418C316.705 183.788 316.219 183.302 315.625 183.302C314.995 183.302 314.509 183.788 314.509 184.418C314.509 185.048 314.995 185.534 315.625 185.534ZM328.568 192.05C328.568 188.936 326.39 186.974 323.582 186.974C320.792 186.974 318.596 188.936 318.596 192.05C318.596 195.182 320.72 197.162 323.51 197.162C326.318 197.162 328.568 195.182 328.568 192.05ZM320.27 192.05C320.27 189.566 321.836 188.396 323.564 188.396C325.256 188.396 326.894 189.566 326.894 192.05C326.894 194.552 325.22 195.722 323.51 195.722C321.8 195.722 320.27 194.552 320.27 192.05ZM337.94 197H339.56V191.186C339.56 188.36 337.814 186.956 335.528 186.956C334.196 186.956 333.008 187.514 332.36 188.54V187.136H330.722V197H332.36V191.546C332.36 189.422 333.512 188.378 335.186 188.378C336.842 188.378 337.94 189.404 337.94 191.42V197ZM349.328 194.318C349.256 190.79 343.532 192.068 343.532 189.728C343.532 188.936 344.252 188.36 345.458 188.36C346.772 188.36 347.528 189.08 347.6 190.07H349.238C349.13 188.144 347.69 186.974 345.512 186.974C343.316 186.974 341.894 188.216 341.894 189.728C341.894 193.4 347.726 192.122 347.726 194.318C347.726 195.128 347.006 195.776 345.71 195.776C344.324 195.776 343.478 195.056 343.388 194.102H341.696C341.804 195.902 343.424 197.162 345.728 197.162C347.906 197.162 349.328 195.938 349.328 194.318ZM352.198 193.454H353.566L353.764 184.454H352L352.198 193.454ZM354.034 195.992C354.034 195.362 353.548 194.876 352.954 194.876C352.324 194.876 351.838 195.362 351.838 195.992C351.838 196.622 352.324 197.108 352.954 197.108C353.548 197.108 354.034 196.622 354.034 195.992Z" fill="white"/>
</g>
</g>
<defs>
<filter id="filter0_d_8_12" x="324" y="283" width="286" height="286" filterUnits="userSpaceOnUse" color-interpolation-filters="sRGB">
<feFlood flood-opacity="0" result="BackgroundImageFix"/>
<feColorMatrix in="SourceAlpha" type="matrix" values="0 0 0 0 0 0 0 0 0 0 0 0 0 0 0 0 0 0 127 0" result="hardAlpha"/>
<feOffset/>
<feGaussianBlur stdDeviation="20"/>
<feComposite in2="hardAlpha" operator="out"/>
<feColorMatrix type="matrix" values="0 0 0 0 0.0117647 0 0 0 0 0.4 0 0 0 0 0.807843 0 0 0 1 0"/>
<feBlend mode="normal" in2="BackgroundImageFix" result="effect1_dropShadow_8_12"/>
<feBlend mode="normal" in="SourceGraphic" in2="effect1_dropShadow_8_12" result="shape"/>
</filter>
<filter id="filter1_d_8_12" x="-10" y="283" width="286" height="286" filterUnits="userSpaceOnUse" color-interpolation-filters="sRGB">
<feFlood flood-opacity="0" result="BackgroundImageFix"/>
<feColorMatrix in="SourceAlpha" type="matrix" values="0 0 0 0 0 0 0 0 0 0 0 0 0 0 0 0 0 0 127 0" result="hardAlpha"/>
<feOffset/>
<feGaussianBlur stdDeviation="20"/>
<feComposite in2="hardAlpha" operator="out"/>
<feColorMatrix type="matrix" values="0 0 0 0 0.0117647 0 0 0 0 0.4 0 0 0 0 0.807843 0 0 0 1 0"/>
<feBlend mode="normal" in2="BackgroundImageFix" result="effect1_dropShadow_8_12"/>
<feBlend mode="normal" in="SourceGraphic" in2="effect1_dropShadow_8_12" result="shape"/>
</filter>
<filter id="filter2_d_8_12" x="157" y="8" width="286" height="286" filterUnits="userSpaceOnUse" color-interpolation-filters="sRGB">
<feFlood flood-opacity="0" result="BackgroundImageFix"/>
<feColorMatrix in="SourceAlpha" type="matrix" values="0 0 0 0 0 0 0 0 0 0 0 0 0 0 0 0 0 0 127 0" result="hardAlpha"/>
<feOffset/>
<feGaussianBlur stdDeviation="20"/>
<feComposite in2="hardAlpha" operator="out"/>
<feColorMatrix type="matrix" values="0 0 0 0 0.0117647 0 0 0 0 0.4 0 0 0 0 0.807843 0 0 0 1 0"/>
<feBlend mode="normal" in2="BackgroundImageFix" result="effect1_dropShadow_8_12"/>
<feBlend mode="normal" in="SourceGraphic" in2="effect1_dropShadow_8_12" result="shape"/>
</filter>
<clipPath id="clip0_8_12">
<rect width="600" height="600" fill="white"/>
</clipPath>
</defs>
</svg>
