<svg width="600" height="600" viewBox="0 0 600 600" fill="none" xmlns="http://www.w3.org/2000/svg">
<g clip-path="url(#clip0_8_2)">
<g filter="url(#filter0_d_8_2)">
<circle cx="467" cy="426" r="103" fill="black"/>
</g>
<path d="M388.718 404.575H383.293V422H388.718C394.443 422 397.968 418.725 397.968 413.325C397.968 407.925 394.443 404.575 388.718 404.575ZM385.568 420.125V406.425H388.718C393.268 406.425 395.643 409.075 395.643 413.325C395.643 417.575 393.268 420.125 388.718 420.125H385.568ZM406.793 410C409.143 410 411.143 411.475 411.118 414.15H402.468C402.718 411.475 404.568 410 406.793 410ZM413.193 417.775H410.743C410.243 419.25 408.943 420.3 406.893 420.3C404.568 420.3 402.618 418.775 402.443 416H413.393C413.443 415.525 413.468 415.125 413.468 414.625C413.468 410.875 410.868 408.075 406.893 408.075C402.893 408.075 400.118 410.8 400.118 415.125C400.118 419.475 402.993 422.225 406.893 422.225C410.293 422.225 412.493 420.275 413.193 417.775ZM415.621 415.125C415.621 419.475 418.396 422.225 422.296 422.225C425.696 422.225 427.921 420.325 428.621 417.6H426.171C425.671 419.325 424.321 420.3 422.296 420.3C419.796 420.3 417.946 418.525 417.946 415.125C417.946 411.775 419.796 410 422.296 410C424.321 410 425.696 411.05 426.171 412.7H428.621C427.921 409.825 425.696 408.075 422.296 408.075C418.396 408.075 415.621 410.825 415.621 415.125ZM437.482 410C439.832 410 441.832 411.475 441.807 414.15H433.157C433.407 411.475 435.257 410 437.482 410ZM443.882 417.775H441.432C440.932 419.25 439.632 420.3 437.582 420.3C435.257 420.3 433.307 418.775 433.132 416H444.082C444.132 415.525 444.157 415.125 444.157 414.625C444.157 410.875 441.557 408.075 437.582 408.075C433.582 408.075 430.807 410.8 430.807 415.125C430.807 419.475 433.682 422.225 437.582 422.225C440.982 422.225 443.182 420.275 443.882 417.775ZM457.185 422H459.435V413.925C459.435 410 457.01 408.05 453.835 408.05C451.985 408.05 450.335 408.825 449.435 410.25V408.3H447.16V422H449.435V414.425C449.435 411.475 451.035 410.025 453.36 410.025C455.66 410.025 457.185 411.45 457.185 414.25V422ZM463.651 418.25C463.651 421 465.026 422 467.451 422H469.501V420.075H467.826C466.426 420.075 465.926 419.6 465.926 418.25V410.175H469.501V408.3H465.926V404.85H463.651V408.3H461.876V410.175H463.651V418.25ZM474.533 414.55C474.533 411.375 476.183 410.4 478.358 410.4H478.958V408.05C476.783 408.05 475.308 409 474.533 410.525V408.3H472.258V422H474.533V414.55ZM480.734 415.1C480.734 419.35 483.559 422.225 487.209 422.225C489.734 422.225 491.509 420.925 492.334 419.45V422H494.634V408.3H492.334V410.8C491.534 409.375 489.784 408.075 487.234 408.075C483.559 408.075 480.734 410.825 480.734 415.1ZM492.334 415.125C492.334 418.35 490.184 420.225 487.684 420.225C485.184 420.225 483.059 418.325 483.059 415.1C483.059 411.875 485.184 410.05 487.684 410.05C490.184 410.05 492.334 411.95 492.334 415.125ZM498.478 422H500.753V403.5H498.478V422ZM504.631 422H506.906V408.3H504.631V422ZM505.806 406.075C506.631 406.075 507.306 405.4 507.306 404.525C507.306 403.65 506.631 402.975 505.806 402.975C504.931 402.975 504.256 403.65 504.256 404.525C504.256 405.4 504.931 406.075 505.806 406.075ZM519.158 408.3H509.933V410.15H516.533L509.883 420.125V422H519.208V420.125H512.483L519.158 410.15V408.3ZM527.985 410C530.335 410 532.335 411.475 532.31 414.15H523.66C523.91 411.475 525.76 410 527.985 410ZM534.385 417.775H531.935C531.435 419.25 530.135 420.3 528.085 420.3C525.76 420.3 523.81 418.775 523.635 416H534.585C534.635 415.525 534.66 415.125 534.66 414.625C534.66 410.875 532.06 408.075 528.085 408.075C524.085 408.075 521.31 410.8 521.31 415.125C521.31 419.475 524.185 422.225 528.085 422.225C531.485 422.225 533.685 420.275 534.385 417.775ZM536.813 415.1C536.813 419.35 539.638 422.225 543.313 422.225C545.813 422.225 547.588 420.95 548.413 419.425V422H550.713V403.5H548.413V410.75C547.463 409.175 545.488 408.075 543.338 408.075C539.638 408.075 536.813 410.825 536.813 415.1ZM548.413 415.125C548.413 418.35 546.263 420.225 543.763 420.225C541.263 420.225 539.138 418.325 539.138 415.1C539.138 411.875 541.263 410.05 543.763 410.05C546.263 410.05 548.413 411.95 548.413 415.125ZM402.964 460H405.364L399.089 442.675H396.464L390.164 460H392.564L393.964 456.125H401.564L402.964 460ZM400.914 454.275H394.614L397.764 445.475L400.914 454.275ZM410.385 448.825V446.3H408.11V466.5H410.385V457.475C411.235 458.875 413.01 460.225 415.51 460.225C419.185 460.225 422.01 457.35 422.01 453.1C422.01 448.825 419.185 446.075 415.51 446.075C413.01 446.075 411.21 447.375 410.385 448.825ZM419.685 453.1C419.685 456.325 417.56 458.225 415.035 458.225C412.56 458.225 410.385 456.35 410.385 453.125C410.385 449.95 412.56 448.05 415.035 448.05C417.56 448.05 419.685 449.875 419.685 453.1ZM427.279 448.825V446.3H425.004V466.5H427.279V457.475C428.129 458.875 429.904 460.225 432.404 460.225C436.079 460.225 438.904 457.35 438.904 453.1C438.904 448.825 436.079 446.075 432.404 446.075C429.904 446.075 428.104 447.375 427.279 448.825ZM436.579 453.1C436.579 456.325 434.454 458.225 431.929 458.225C429.454 458.225 427.279 456.35 427.279 453.125C427.279 449.95 429.454 448.05 431.929 448.05C434.454 448.05 436.579 449.875 436.579 453.1ZM441.899 460H444.174V441.5H441.899V460ZM448.051 460H450.326V446.3H448.051V460ZM449.226 444.075C450.051 444.075 450.726 443.4 450.726 442.525C450.726 441.65 450.051 440.975 449.226 440.975C448.351 440.975 447.676 441.65 447.676 442.525C447.676 443.4 448.351 444.075 449.226 444.075ZM453.353 453.125C453.353 457.475 456.128 460.225 460.028 460.225C463.428 460.225 465.653 458.325 466.353 455.6H463.903C463.403 457.325 462.053 458.3 460.028 458.3C457.528 458.3 455.678 456.525 455.678 453.125C455.678 449.775 457.528 448 460.028 448C462.053 448 463.428 449.05 463.903 450.7H466.353C465.653 447.825 463.428 446.075 460.028 446.075C456.128 446.075 453.353 448.825 453.353 453.125ZM468.539 453.1C468.539 457.35 471.364 460.225 475.014 460.225C477.539 460.225 479.314 458.925 480.139 457.45V460H482.439V446.3H480.139V448.8C479.339 447.375 477.589 446.075 475.039 446.075C471.364 446.075 468.539 448.825 468.539 453.1ZM480.139 453.125C480.139 456.35 477.989 458.225 475.489 458.225C472.989 458.225 470.864 456.325 470.864 453.1C470.864 449.875 472.989 448.05 475.489 448.05C477.989 448.05 480.139 449.95 480.139 453.125ZM486.783 456.25C486.783 459 488.158 460 490.583 460H492.633V458.075H490.958C489.558 458.075 489.058 457.6 489.058 456.25V448.175H492.633V446.3H489.058V442.85H486.783V446.3H485.008V448.175H486.783V456.25ZM495.39 460H497.665V446.3H495.39V460ZM496.565 444.075C497.39 444.075 498.065 443.4 498.065 442.525C498.065 441.65 497.39 440.975 496.565 440.975C495.69 440.975 495.015 441.65 495.015 442.525C495.015 443.4 495.69 444.075 496.565 444.075ZM514.542 453.125C514.542 448.8 511.517 446.075 507.617 446.075C503.742 446.075 500.692 448.8 500.692 453.125C500.692 457.475 503.642 460.225 507.517 460.225C511.417 460.225 514.542 457.475 514.542 453.125ZM503.017 453.125C503.017 449.675 505.192 448.05 507.592 448.05C509.942 448.05 512.217 449.675 512.217 453.125C512.217 456.6 509.892 458.225 507.517 458.225C505.142 458.225 503.017 456.6 503.017 453.125ZM527.558 460H529.808V451.925C529.808 448 527.383 446.05 524.208 446.05C522.358 446.05 520.708 446.825 519.808 448.25V446.3H517.533V460H519.808V452.425C519.808 449.475 521.408 448.025 523.733 448.025C526.033 448.025 527.558 449.45 527.558 452.25V460ZM543.375 456.275C543.275 451.375 535.325 453.15 535.325 449.9C535.325 448.8 536.325 448 538 448C539.825 448 540.875 449 540.975 450.375H543.25C543.1 447.7 541.1 446.075 538.075 446.075C535.025 446.075 533.05 447.8 533.05 449.9C533.05 455 541.15 453.225 541.15 456.275C541.15 457.4 540.15 458.3 538.35 458.3C536.425 458.3 535.25 457.3 535.125 455.975H532.775C532.925 458.475 535.175 460.225 538.375 460.225C541.4 460.225 543.375 458.525 543.375 456.275Z" fill="white"/>
<g filter="url(#filter1_d_8_2)">
<circle cx="133" cy="426" r="103" fill="black"/>
<path d="M56.3046 404.575H50.8796V422H56.3046C62.0296 422 65.5546 418.725 65.5546 413.325C65.5546 407.925 62.0296 404.575 56.3046 404.575ZM53.1546 420.125V406.425H56.3046C60.8546 406.425 63.2296 409.075 63.2296 413.325C63.2296 417.575 60.8546 420.125 56.3046 420.125H53.1546ZM74.3804 410C76.7304 410 78.7304 411.475 78.7054 414.15H70.0554C70.3054 411.475 72.1554 410 74.3804 410ZM80.7804 417.775H78.3304C77.8304 419.25 76.5304 420.3 74.4804 420.3C72.1554 420.3 70.2054 418.775 70.0304 416H80.9804C81.0304 415.525 81.0554 415.125 81.0554 414.625C81.0554 410.875 78.4554 408.075 74.4804 408.075C70.4804 408.075 67.7054 410.8 67.7054 415.125C67.7054 419.475 70.5804 422.225 74.4804 422.225C77.8804 422.225 80.0804 420.275 80.7804 417.775ZM82.4333 408.3L87.8083 422H90.4583L95.8333 408.3H93.4083L89.1583 419.9L84.8833 408.3H82.4333ZM103.897 410C106.247 410 108.247 411.475 108.222 414.15H99.572C99.822 411.475 101.672 410 103.897 410ZM110.297 417.775H107.847C107.347 419.25 106.047 420.3 103.997 420.3C101.672 420.3 99.722 418.775 99.547 416H110.497C110.547 415.525 110.572 415.125 110.572 414.625C110.572 410.875 107.972 408.075 103.997 408.075C99.997 408.075 97.222 410.8 97.222 415.125C97.222 419.475 100.097 422.225 103.997 422.225C107.397 422.225 109.597 420.275 110.297 417.775ZM113.575 422H115.85V403.5H113.575V422ZM132.727 415.125C132.727 410.8 129.702 408.075 125.802 408.075C121.927 408.075 118.877 410.8 118.877 415.125C118.877 419.475 121.827 422.225 125.702 422.225C129.602 422.225 132.727 419.475 132.727 415.125ZM121.202 415.125C121.202 411.675 123.377 410.05 125.777 410.05C128.127 410.05 130.402 411.675 130.402 415.125C130.402 418.6 128.077 420.225 125.702 420.225C123.327 420.225 121.202 418.6 121.202 415.125ZM137.993 410.825V408.3H135.718V428.5H137.993V419.475C138.843 420.875 140.618 422.225 143.118 422.225C146.793 422.225 149.618 419.35 149.618 415.1C149.618 410.825 146.793 408.075 143.118 408.075C140.618 408.075 138.818 409.375 137.993 410.825ZM147.293 415.1C147.293 418.325 145.168 420.225 142.643 420.225C140.168 420.225 137.993 418.35 137.993 415.125C137.993 411.95 140.168 410.05 142.643 410.05C145.168 410.05 147.293 411.875 147.293 415.1ZM172.388 422H174.638V413.925C174.638 410 172.213 408.05 169.088 408.05C166.988 408.05 165.038 409.125 164.238 411.1C163.338 409.05 161.463 408.05 159.213 408.05C157.413 408.05 155.788 408.825 154.888 410.275V408.3H152.613V422H154.888V414.45C154.888 411.5 156.463 410.025 158.763 410.025C161.013 410.025 162.513 411.45 162.513 414.25V422H164.763V414.45C164.763 411.5 166.338 410.025 168.638 410.025C170.888 410.025 172.388 411.45 172.388 414.25V422ZM184.195 410C186.545 410 188.545 411.475 188.52 414.15H179.87C180.12 411.475 181.97 410 184.195 410ZM190.595 417.775H188.145C187.645 419.25 186.345 420.3 184.295 420.3C181.97 420.3 180.02 418.775 179.845 416H190.795C190.845 415.525 190.87 415.125 190.87 414.625C190.87 410.875 188.27 408.075 184.295 408.075C180.295 408.075 177.52 410.8 177.52 415.125C177.52 419.475 180.395 422.225 184.295 422.225C187.695 422.225 189.895 420.275 190.595 417.775ZM203.898 422H206.148V413.925C206.148 410 203.723 408.05 200.548 408.05C198.698 408.05 197.048 408.825 196.148 410.25V408.3H193.873V422H196.148V414.425C196.148 411.475 197.748 410.025 200.073 410.025C202.373 410.025 203.898 411.45 203.898 414.25V422ZM210.364 418.25C210.364 421 211.739 422 214.164 422H216.214V420.075H214.539C213.139 420.075 212.639 419.6 212.639 418.25V410.175H216.214V408.3H212.639V404.85H210.364V408.3H208.589V410.175H210.364V418.25ZM91.4794 444.425H96.2544V460H98.5294V444.425H103.279V442.575H91.4794V444.425ZM111.905 448C114.255 448 116.255 449.475 116.23 452.15H107.58C107.83 449.475 109.68 448 111.905 448ZM118.305 455.775H115.855C115.355 457.25 114.055 458.3 112.005 458.3C109.68 458.3 107.73 456.775 107.555 454H118.505C118.555 453.525 118.58 453.125 118.58 452.625C118.58 448.875 115.98 446.075 112.005 446.075C108.005 446.075 105.23 448.8 105.23 453.125C105.23 457.475 108.105 460.225 112.005 460.225C115.405 460.225 117.605 458.275 118.305 455.775ZM120.733 453.1C120.733 457.35 123.558 460.225 127.208 460.225C129.733 460.225 131.508 458.925 132.333 457.45V460H134.633V446.3H132.333V448.8C131.533 447.375 129.783 446.075 127.233 446.075C123.558 446.075 120.733 448.825 120.733 453.1ZM132.333 453.125C132.333 456.35 130.183 458.225 127.683 458.225C125.183 458.225 123.058 456.325 123.058 453.1C123.058 449.875 125.183 448.05 127.683 448.05C130.183 448.05 132.333 449.95 132.333 453.125ZM158.252 460H160.502V451.925C160.502 448 158.077 446.05 154.952 446.05C152.852 446.05 150.902 447.125 150.102 449.1C149.202 447.05 147.327 446.05 145.077 446.05C143.277 446.05 141.652 446.825 140.752 448.275V446.3H138.477V460H140.752V452.45C140.752 449.5 142.327 448.025 144.627 448.025C146.877 448.025 148.377 449.45 148.377 452.25V460H150.627V452.45C150.627 449.5 152.202 448.025 154.502 448.025C156.752 448.025 158.252 449.45 158.252 452.25V460ZM174.084 456.275C173.984 451.375 166.034 453.15 166.034 449.9C166.034 448.8 167.034 448 168.709 448C170.534 448 171.584 449 171.684 450.375H173.959C173.809 447.7 171.809 446.075 168.784 446.075C165.734 446.075 163.759 447.8 163.759 449.9C163.759 455 171.859 453.225 171.859 456.275C171.859 457.4 170.859 458.3 169.059 458.3C167.134 458.3 165.959 457.3 165.834 455.975H163.484C163.634 458.475 165.884 460.225 169.084 460.225C172.109 460.225 174.084 458.525 174.084 456.275Z" fill="white"/>
</g>
<g filter="url(#filter2_d_8_2)">
<circle cx="300" cy="151" r="103" fill="black"/>
<path d="M250.575 134.275C250.575 139.5 254.4 143.15 259.275 143.15C263.05 143.15 266.05 141.275 267.35 137.925H264.625C263.675 140 261.825 141.175 259.275 141.175C255.625 141.175 252.9 138.525 252.9 134.275C252.9 130 255.625 127.35 259.275 127.35C261.825 127.35 263.675 128.525 264.625 130.625H267.35C266.05 127.25 263.05 125.35 259.275 125.35C254.4 125.35 250.575 129.05 250.575 134.275ZM283.736 136.125C283.736 131.8 280.711 129.075 276.811 129.075C272.936 129.075 269.886 131.8 269.886 136.125C269.886 140.475 272.836 143.225 276.711 143.225C280.611 143.225 283.736 140.475 283.736 136.125ZM272.211 136.125C272.211 132.675 274.386 131.05 276.786 131.05C279.136 131.05 281.411 132.675 281.411 136.125C281.411 139.6 279.086 141.225 276.711 141.225C274.336 141.225 272.211 139.6 272.211 136.125ZM296.752 143H299.002V134.925C299.002 131 296.577 129.05 293.402 129.05C291.552 129.05 289.902 129.825 289.002 131.25V129.3H286.727V143H289.002V135.425C289.002 132.475 290.602 131.025 292.927 131.025C295.227 131.025 296.752 132.45 296.752 135.25V143ZM303.218 139.25C303.218 142 304.593 143 307.018 143H309.068V141.075H307.393C305.993 141.075 305.493 140.6 305.493 139.25V131.175H309.068V129.3H305.493V125.85H303.218V129.3H301.443V131.175H303.218V139.25ZM317.65 131C320 131 322 132.475 321.975 135.15H313.325C313.575 132.475 315.425 131 317.65 131ZM324.05 138.775H321.6C321.1 140.25 319.8 141.3 317.75 141.3C315.425 141.3 313.475 139.775 313.3 137H324.25C324.3 136.525 324.325 136.125 324.325 135.625C324.325 131.875 321.725 129.075 317.75 129.075C313.75 129.075 310.975 131.8 310.975 136.125C310.975 140.475 313.85 143.225 317.75 143.225C321.15 143.225 323.35 141.275 324.05 138.775ZM337.353 143H339.603V134.925C339.603 131 337.178 129.05 334.003 129.05C332.153 129.05 330.503 129.825 329.603 131.25V129.3H327.328V143H329.603V135.425C329.603 132.475 331.203 131.025 333.528 131.025C335.828 131.025 337.353 132.45 337.353 135.25V143ZM343.819 139.25C343.819 142 345.194 143 347.619 143H349.669V141.075H347.994C346.594 141.075 346.094 140.6 346.094 139.25V131.175H349.669V129.3H346.094V125.85H343.819V129.3H342.044V131.175H343.819V139.25ZM253.59 172.275C253.59 177.5 257.415 181.15 262.29 181.15C266.065 181.15 269.065 179.275 270.365 175.925H267.64C266.69 178 264.84 179.175 262.29 179.175C258.64 179.175 255.915 176.525 255.915 172.275C255.915 168 258.64 165.35 262.29 165.35C264.84 165.35 266.69 166.525 267.64 168.625H270.365C269.065 165.25 266.065 163.35 262.29 163.35C257.415 163.35 253.59 167.05 253.59 172.275ZM276.026 173.55C276.026 170.375 277.676 169.4 279.851 169.4H280.451V167.05C278.276 167.05 276.801 168 276.026 169.525V167.3H273.751V181H276.026V173.55ZM288.902 169C291.252 169 293.252 170.475 293.227 173.15H284.577C284.827 170.475 286.677 169 288.902 169ZM295.302 176.775H292.852C292.352 178.25 291.052 179.3 289.002 179.3C286.677 179.3 284.727 177.775 284.552 175H295.502C295.552 174.525 295.577 174.125 295.577 173.625C295.577 169.875 292.977 167.075 289.002 167.075C285.002 167.075 282.227 169.8 282.227 174.125C282.227 178.475 285.102 181.225 289.002 181.225C292.402 181.225 294.602 179.275 295.302 176.775ZM297.73 174.1C297.73 178.35 300.555 181.225 304.205 181.225C306.73 181.225 308.505 179.925 309.33 178.45V181H311.63V167.3H309.33V169.8C308.53 168.375 306.78 167.075 304.23 167.075C300.555 167.075 297.73 169.825 297.73 174.1ZM309.33 174.125C309.33 177.35 307.18 179.225 304.68 179.225C302.18 179.225 300.055 177.325 300.055 174.1C300.055 170.875 302.18 169.05 304.68 169.05C307.18 169.05 309.33 170.95 309.33 174.125ZM315.975 177.25C315.975 180 317.35 181 319.775 181H321.825V179.075H320.15C318.75 179.075 318.25 178.6 318.25 177.25V169.175H321.825V167.3H318.25V163.85H315.975V167.3H314.2V169.175H315.975V177.25ZM330.406 169C332.756 169 334.756 170.475 334.731 173.15H326.081C326.331 170.475 328.181 169 330.406 169ZM336.806 176.775H334.356C333.856 178.25 332.556 179.3 330.506 179.3C328.181 179.3 326.231 177.775 326.056 175H337.006C337.056 174.525 337.081 174.125 337.081 173.625C337.081 169.875 334.481 167.075 330.506 167.075C326.506 167.075 323.731 169.8 323.731 174.125C323.731 178.475 326.606 181.225 330.506 181.225C333.906 181.225 336.106 179.275 336.806 176.775ZM342.359 173.55C342.359 170.375 344.009 169.4 346.184 169.4H346.784V167.05C344.609 167.05 343.134 168 342.359 169.525V167.3H340.084V181H342.359V173.55Z" fill="white"/>
</g>
</g>
<defs>
<filter id="filter0_d_8_2" x="324" y="283" width="286" height="286" filterUnits="userSpaceOnUse" color-interpolation-filters="sRGB">
<feFlood flood-opacity="0" result="BackgroundImageFix"/>
<feColorMatrix in="SourceAlpha" type="matrix" values="0 0 0 0 0 0 0 0 0 0 0 0 0 0 0 0 0 0 127 0" result="hardAlpha"/>
<feOffset/>
<feGaussianBlur stdDeviation="20"/>
<feComposite in2="hardAlpha" operator="out"/>
<feColorMatrix type="matrix" values="0 0 0 0 0.0117647 0 0 0 0 0.4 0 0 0 0 0.807843 0 0 0 1 0"/>
<feBlend mode="normal" in2="BackgroundImageFix" result="effect1_dropShadow_8_2"/>
<feBlend mode="normal" in="SourceGraphic" in2="effect1_dropShadow_8_2" result="shape"/>
</filter>
<filter id="filter1_d_8_2" x="-10" y="283" width="286" height="286" filterUnits="userSpaceOnUse" color-interpolation-filters="sRGB">
<feFlood flood-opacity="0" result="BackgroundImageFix"/>
<feColorMatrix in="SourceAlpha" type="matrix" values="0 0 0 0 0 0 0 0 0 0 0 0 0 0 0 0 0 0 127 0" result="hardAlpha"/>
<feOffset/>
<feGaussianBlur stdDeviation="20"/>
<feComposite in2="hardAlpha" operator="out"/>
<feColorMatrix type="matrix" values="0 0 0 0 0.0117647 0 0 0 0 0.4 0 0 0 0 0.807843 0 0 0 1 0"/>
<feBlend mode="normal" in2="BackgroundImageFix" result="effect1_dropShadow_8_2"/>
<feBlend mode="normal" in="SourceGraphic" in2="effect1_dropShadow_8_2" result="shape"/>
</filter>
<filter id="filter2_d_8_2" x="157" y="8" width="286" height="286" filterUnits="userSpaceOnUse" color-interpolation-filters="sRGB">
<feFlood flood-opacity="0" result="BackgroundImageFix"/>
<feColorMatrix in="SourceAlpha" type="matrix" values="0 0 0 0 0 0 0 0 0 0 0 0 0 0 0 0 0 0 127 0" result="hardAlpha"/>
<feOffset/>
<feGaussianBlur stdDeviation="20"/>
<feComposite in2="hardAlpha" operator="out"/>
<feColorMatrix type="matrix" values="0 0 0 0 0.0117647 0 0 0 0 0.4 0 0 0 0 0.807843 0 0 0 1 0"/>
<feBlend mode="normal" in2="BackgroundImageFix" result="effect1_dropShadow_8_2"/>
<feBlend mode="normal" in="SourceGraphic" in2="effect1_dropShadow_8_2" result="shape"/>
</filter>
<clipPath id="clip0_8_2">
<rect width="600" height="600" fill="white"/>
</clipPath>
</defs>
</svg>
