<svg width="600" height="600" viewBox="0 0 600 600" fill="none" xmlns="http://www.w3.org/2000/svg">
<g clip-path="url(#clip0_8_22)">
<g filter="url(#filter0_d_8_22)">
<circle cx="467" cy="426" r="103" fill="black"/>
</g>
<path d="M414.794 372.412V367.804H417.206C419.078 367.804 419.87 368.668 419.87 370.126C419.87 371.53 419.078 372.412 417.206 372.412H414.794ZM421.544 370.126C421.544 368.074 420.158 366.454 417.206 366.454H413.156V379H414.794V373.762H417.206C420.32 373.762 421.544 372.034 421.544 370.126ZM425.217 373.636C425.217 371.35 426.405 370.648 427.971 370.648H428.403V368.956C426.837 368.956 425.775 369.64 425.217 370.738V369.136H423.579V379H425.217V373.636ZM439.654 374.05C439.654 370.936 437.476 368.974 434.668 368.974C431.878 368.974 429.682 370.936 429.682 374.05C429.682 377.182 431.806 379.162 434.596 379.162C437.404 379.162 439.654 377.182 439.654 374.05ZM431.356 374.05C431.356 371.566 432.922 370.396 434.65 370.396C436.342 370.396 437.98 371.566 437.98 374.05C437.98 376.552 436.306 377.722 434.596 377.722C432.886 377.722 431.356 376.552 431.356 374.05ZM456.046 379H457.666V373.186C457.666 370.36 455.92 368.956 453.67 368.956C452.158 368.956 450.754 369.73 450.178 371.152C449.53 369.676 448.18 368.956 446.56 368.956C445.264 368.956 444.094 369.514 443.446 370.558V369.136H441.808V379H443.446V373.564C443.446 371.44 444.58 370.378 446.236 370.378C447.856 370.378 448.936 371.404 448.936 373.42V379H450.556V373.564C450.556 371.44 451.69 370.378 453.346 370.378C454.966 370.378 456.046 371.404 456.046 373.42V379ZM469.713 374.05C469.713 370.936 467.535 368.974 464.727 368.974C461.937 368.974 459.741 370.936 459.741 374.05C459.741 377.182 461.865 379.162 464.655 379.162C467.463 379.162 469.713 377.182 469.713 374.05ZM461.415 374.05C461.415 371.566 462.981 370.396 464.709 370.396C466.401 370.396 468.039 371.566 468.039 374.05C468.039 376.552 466.365 377.722 464.655 377.722C462.945 377.722 461.415 376.552 461.415 374.05ZM472.226 376.3C472.226 378.28 473.216 379 474.962 379H476.438V377.614H475.232C474.224 377.614 473.864 377.272 473.864 376.3V370.486H476.438V369.136H473.864V366.652H472.226V369.136H470.948V370.486H472.226V376.3ZM482.617 370.36C484.309 370.36 485.749 371.422 485.731 373.348H479.503C479.683 371.422 481.015 370.36 482.617 370.36ZM487.225 375.958H485.461C485.101 377.02 484.165 377.776 482.689 377.776C481.015 377.776 479.611 376.678 479.485 374.68H487.369C487.405 374.338 487.423 374.05 487.423 373.69C487.423 370.99 485.551 368.974 482.689 368.974C479.809 368.974 477.811 370.936 477.811 374.05C477.811 377.182 479.881 379.162 482.689 379.162C485.137 379.162 486.721 377.758 487.225 375.958ZM494.744 376.3C494.744 378.28 495.734 379 497.48 379H498.956V377.614H497.75C496.742 377.614 496.382 377.272 496.382 376.3V370.486H498.956V369.136H496.382V366.652H494.744V369.136H493.466V370.486H494.744V376.3ZM500.941 379H502.579V373.546C502.579 371.422 503.731 370.378 505.405 370.378C507.061 370.378 508.159 371.404 508.159 373.42V379H509.779V373.186C509.779 370.36 508.033 368.956 505.837 368.956C504.451 368.956 503.227 369.514 502.579 370.558V365.68H500.941V379ZM516.648 370.36C518.34 370.36 519.78 371.422 519.762 373.348H513.534C513.714 371.422 515.046 370.36 516.648 370.36ZM521.256 375.958H519.492C519.132 377.02 518.196 377.776 516.72 377.776C515.046 377.776 513.642 376.678 513.516 374.68H521.4C521.436 374.338 521.454 374.05 521.454 373.69C521.454 370.99 519.582 368.974 516.72 368.974C513.84 368.974 511.842 370.936 511.842 374.05C511.842 377.182 513.912 379.162 516.72 379.162C519.168 379.162 520.752 377.758 521.256 375.958ZM407.771 401.032C407.771 404.092 409.805 406.162 412.451 406.162C414.251 406.162 415.529 405.208 416.123 404.146V406.216C416.123 408.322 414.809 409.438 413.063 409.438C411.443 409.438 410.273 408.628 409.913 407.44H408.293C408.617 409.546 410.471 410.86 413.063 410.86C415.961 410.86 417.779 408.934 417.779 406.216V396.136H416.123V397.936C415.547 396.874 414.251 395.974 412.451 395.974C409.805 395.974 407.771 397.954 407.771 401.032ZM416.123 401.05C416.123 403.372 414.575 404.722 412.775 404.722C410.975 404.722 409.445 403.354 409.445 401.032C409.445 398.71 410.975 397.396 412.775 397.396C414.575 397.396 416.123 398.764 416.123 401.05ZM422.185 400.636C422.185 398.35 423.373 397.648 424.939 397.648H425.371V395.956C423.805 395.956 422.743 396.64 422.185 397.738V396.136H420.547V406H422.185V400.636ZM436.622 401.05C436.622 397.936 434.444 395.974 431.636 395.974C428.846 395.974 426.65 397.936 426.65 401.05C426.65 404.182 428.774 406.162 431.564 406.162C434.372 406.162 436.622 404.182 436.622 401.05ZM428.324 401.05C428.324 398.566 429.89 397.396 431.618 397.396C433.31 397.396 434.948 398.566 434.948 401.05C434.948 403.552 433.274 404.722 431.564 404.722C429.854 404.722 428.324 403.552 428.324 401.05ZM440.702 406H442.394L444.77 398.17L447.146 406H448.838L451.916 396.136H450.296L448.064 404.434L445.67 396.136H443.996L441.548 404.416L439.28 396.136H437.606L440.702 406ZM453.901 403.3C453.901 405.28 454.891 406 456.637 406H458.113V404.614H456.907C455.899 404.614 455.539 404.272 455.539 403.3V397.486H458.113V396.136H455.539V393.652H453.901V396.136H452.623V397.486H453.901V403.3ZM460.098 406H461.736V400.546C461.736 398.422 462.888 397.378 464.562 397.378C466.218 397.378 467.316 398.404 467.316 400.42V406H468.936V400.186C468.936 397.36 467.19 395.956 464.994 395.956C463.608 395.956 462.384 396.514 461.736 397.558V392.68H460.098V406ZM485.77 401.05C485.77 397.936 483.592 395.974 480.784 395.974C477.994 395.974 475.798 397.936 475.798 401.05C475.798 404.182 477.922 406.162 480.712 406.162C483.52 406.162 485.77 404.182 485.77 401.05ZM477.472 401.05C477.472 398.566 479.038 397.396 480.766 397.396C482.458 397.396 484.096 398.566 484.096 401.05C484.096 403.552 482.422 404.722 480.712 404.722C479.002 404.722 477.472 403.552 477.472 401.05ZM488.23 406H489.868V397.486H491.938V396.136H489.868V395.434C489.868 394.156 490.354 393.616 491.83 393.616V392.248C489.31 392.248 488.23 393.238 488.23 395.434V396.136H486.952V397.486H488.23V406ZM508.007 401.05C508.007 397.936 505.829 395.974 503.021 395.974C500.231 395.974 498.035 397.936 498.035 401.05C498.035 404.182 500.159 406.162 502.949 406.162C505.757 406.162 508.007 404.182 508.007 401.05ZM499.709 401.05C499.709 398.566 501.275 397.396 503.003 397.396C504.695 397.396 506.333 398.566 506.333 401.05C506.333 403.552 504.659 404.722 502.949 404.722C501.239 404.722 499.709 403.552 499.709 401.05ZM518.908 396.136H517.27V401.554C517.27 403.678 516.136 404.722 514.444 404.722C512.788 404.722 511.69 403.696 511.69 401.698V396.136H510.07V401.914C510.07 404.74 511.852 406.144 514.12 406.144C515.434 406.144 516.64 405.568 517.27 404.542V406H518.908V396.136ZM523.312 400.636C523.312 398.35 524.5 397.648 526.066 397.648H526.498V395.956C524.932 395.956 523.87 396.64 523.312 397.738V396.136H521.674V406H523.312V400.636ZM405.468 424.954V423.136H403.83V437.68H405.468V431.182C406.08 432.19 407.358 433.162 409.158 433.162C411.804 433.162 413.838 431.092 413.838 428.032C413.838 424.954 411.804 422.974 409.158 422.974C407.358 422.974 406.062 423.91 405.468 424.954ZM412.164 428.032C412.164 430.354 410.634 431.722 408.816 431.722C407.034 431.722 405.468 430.372 405.468 428.05C405.468 425.764 407.034 424.396 408.816 424.396C410.634 424.396 412.164 425.71 412.164 428.032ZM415.994 433H417.632V419.68H415.994V433ZM419.812 428.032C419.812 431.092 421.846 433.162 424.474 433.162C426.292 433.162 427.57 432.226 428.164 431.164V433H429.82V423.136H428.164V424.936C427.588 423.91 426.328 422.974 424.492 422.974C421.846 422.974 419.812 424.954 419.812 428.032ZM428.164 428.05C428.164 430.372 426.616 431.722 424.816 431.722C423.016 431.722 421.486 430.354 421.486 428.032C421.486 425.71 423.016 424.396 424.816 424.396C426.616 424.396 428.164 425.764 428.164 428.05ZM432.948 430.3C432.948 432.28 433.938 433 435.684 433H437.16V431.614H435.954C434.946 431.614 434.586 431.272 434.586 430.3V424.486H437.16V423.136H434.586V420.652H432.948V423.136H431.67V424.486H432.948V430.3ZM439.451 433H441.089V424.486H443.159V423.136H441.089V422.434C441.089 421.156 441.575 420.616 443.051 420.616V419.248C440.531 419.248 439.451 420.238 439.451 422.434V423.136H438.173V424.486H439.451V433ZM454.429 428.05C454.429 424.936 452.251 422.974 449.443 422.974C446.653 422.974 444.457 424.936 444.457 428.05C444.457 431.182 446.581 433.162 449.371 433.162C452.179 433.162 454.429 431.182 454.429 428.05ZM446.131 428.05C446.131 425.566 447.697 424.396 449.425 424.396C451.117 424.396 452.755 425.566 452.755 428.05C452.755 430.552 451.081 431.722 449.371 431.722C447.661 431.722 446.131 430.552 446.131 428.05ZM458.22 427.636C458.22 425.35 459.408 424.648 460.974 424.648H461.406V422.956C459.84 422.956 458.778 423.64 458.22 424.738V423.136H456.582V433H458.22V427.636ZM477.535 433H479.155V427.186C479.155 424.36 477.409 422.956 475.159 422.956C473.647 422.956 472.243 423.73 471.667 425.152C471.019 423.676 469.669 422.956 468.049 422.956C466.753 422.956 465.583 423.514 464.935 424.558V423.136H463.297V433H464.935V427.564C464.935 425.44 466.069 424.378 467.725 424.378C469.345 424.378 470.425 425.404 470.425 427.42V433H472.045V427.564C472.045 425.44 473.179 424.378 474.835 424.378C476.455 424.378 477.535 425.404 477.535 427.42V433ZM488.567 433H490.259L492.635 425.17L495.011 433H496.703L499.781 423.136H498.161L495.929 431.434L493.535 423.136H491.861L489.413 431.416L487.145 423.136H485.471L488.567 433ZM501.407 433H503.045V427.546C503.045 425.422 504.197 424.378 505.871 424.378C507.527 424.378 508.625 425.404 508.625 427.42V433H510.245V427.186C510.245 424.36 508.499 422.956 506.303 422.956C504.917 422.956 503.693 423.514 503.045 424.558V419.68H501.407V433ZM512.92 433H514.558V423.136H512.92V433ZM513.766 421.534C514.36 421.534 514.846 421.048 514.846 420.418C514.846 419.788 514.36 419.302 513.766 419.302C513.136 419.302 512.65 419.788 512.65 420.418C512.65 421.048 513.136 421.534 513.766 421.534ZM517.35 433H518.988V419.68H517.35V433ZM525.974 424.36C527.666 424.36 529.106 425.422 529.088 427.348H522.86C523.04 425.422 524.372 424.36 525.974 424.36ZM530.582 429.958H528.818C528.458 431.02 527.522 431.776 526.046 431.776C524.372 431.776 522.968 430.678 522.842 428.68H530.726C530.762 428.338 530.78 428.05 530.78 427.69C530.78 424.99 528.908 422.974 526.046 422.974C523.166 422.974 521.168 424.936 521.168 428.05C521.168 431.182 523.238 433.162 526.046 433.162C528.494 433.162 530.078 431.758 530.582 429.958ZM415.864 460H417.556L419.932 452.17L422.308 460H424L427.078 450.136H425.458L423.226 458.434L420.832 450.136H419.158L416.71 458.416L414.442 450.136H412.768L415.864 460ZM432.897 451.36C434.589 451.36 436.029 452.422 436.011 454.348H429.783C429.963 452.422 431.295 451.36 432.897 451.36ZM437.505 456.958H435.741C435.381 458.02 434.445 458.776 432.969 458.776C431.295 458.776 429.891 457.678 429.765 455.68H437.649C437.685 455.338 437.703 455.05 437.703 454.69C437.703 451.99 435.831 449.974 432.969 449.974C430.089 449.974 428.091 451.936 428.091 455.05C428.091 458.182 430.161 460.162 432.969 460.162C435.417 460.162 437.001 458.758 437.505 456.958ZM446.302 451.954V450.136H444.664V464.68H446.302V458.182C446.914 459.19 448.192 460.162 449.992 460.162C452.638 460.162 454.672 458.092 454.672 455.032C454.672 451.954 452.638 449.974 449.992 449.974C448.192 449.974 446.896 450.91 446.302 451.954ZM452.998 455.032C452.998 457.354 451.468 458.722 449.65 458.722C447.868 458.722 446.302 457.372 446.302 455.05C446.302 452.764 447.868 451.396 449.65 451.396C451.468 451.396 452.998 452.71 452.998 455.032ZM458.466 454.636C458.466 452.35 459.654 451.648 461.22 451.648H461.652V449.956C460.086 449.956 459.024 450.64 458.466 451.738V450.136H456.828V460H458.466V454.636ZM472.903 455.05C472.903 451.936 470.725 449.974 467.917 449.974C465.127 449.974 462.931 451.936 462.931 455.05C462.931 458.182 465.055 460.162 467.845 460.162C470.653 460.162 472.903 458.182 472.903 455.05ZM464.605 455.05C464.605 452.566 466.171 451.396 467.899 451.396C469.591 451.396 471.229 452.566 471.229 455.05C471.229 457.552 469.555 458.722 467.845 458.722C466.135 458.722 464.605 457.552 464.605 455.05ZM489.295 460H490.915V454.186C490.915 451.36 489.169 449.956 486.919 449.956C485.407 449.956 484.003 450.73 483.427 452.152C482.779 450.676 481.429 449.956 479.809 449.956C478.513 449.956 477.343 450.514 476.695 451.558V450.136H475.057V460H476.695V454.564C476.695 452.44 477.829 451.378 479.485 451.378C481.105 451.378 482.185 452.404 482.185 454.42V460H483.805V454.564C483.805 452.44 484.939 451.378 486.595 451.378C488.215 451.378 489.295 452.404 489.295 454.42V460ZM502.962 455.05C502.962 451.936 500.784 449.974 497.976 449.974C495.186 449.974 492.99 451.936 492.99 455.05C492.99 458.182 495.114 460.162 497.904 460.162C500.712 460.162 502.962 458.182 502.962 455.05ZM494.664 455.05C494.664 452.566 496.23 451.396 497.958 451.396C499.65 451.396 501.288 452.566 501.288 455.05C501.288 457.552 499.614 458.722 497.904 458.722C496.194 458.722 494.664 457.552 494.664 455.05ZM505.475 457.3C505.475 459.28 506.465 460 508.211 460H509.687V458.614H508.481C507.473 458.614 507.113 458.272 507.113 457.3V451.486H509.687V450.136H507.113V447.652H505.475V450.136H504.197V451.486H505.475V457.3ZM515.866 451.36C517.558 451.36 518.998 452.422 518.98 454.348H512.752C512.932 452.422 514.264 451.36 515.866 451.36ZM520.474 456.958H518.71C518.35 458.02 517.414 458.776 515.938 458.776C514.264 458.776 512.86 457.678 512.734 455.68H520.618C520.654 455.338 520.672 455.05 520.672 454.69C520.672 451.99 518.8 449.974 515.938 449.974C513.058 449.974 511.06 451.936 511.06 455.05C511.06 458.182 513.13 460.162 515.938 460.162C518.386 460.162 519.97 458.758 520.474 456.958ZM444.805 485.128L441.709 477.136H439.891L443.869 486.892L441.925 491.644H443.617L449.557 477.136H447.865L444.805 485.128ZM460.563 482.05C460.563 478.936 458.385 476.974 455.577 476.974C452.787 476.974 450.591 478.936 450.591 482.05C450.591 485.182 452.715 487.162 455.505 487.162C458.313 487.162 460.563 485.182 460.563 482.05ZM452.265 482.05C452.265 479.566 453.831 478.396 455.559 478.396C457.251 478.396 458.889 479.566 458.889 482.05C458.889 484.552 457.215 485.722 455.505 485.722C453.795 485.722 452.265 484.552 452.265 482.05ZM471.465 477.136H469.827V482.554C469.827 484.678 468.693 485.722 467.001 485.722C465.345 485.722 464.247 484.696 464.247 482.698V477.136H462.627V482.914C462.627 485.74 464.409 487.144 466.677 487.144C467.991 487.144 469.197 486.568 469.827 485.542V487H471.465V477.136ZM475.869 481.636C475.869 479.35 477.057 478.648 478.623 478.648H479.055V476.956C477.489 476.956 476.427 477.64 475.869 478.738V477.136H474.231V487H475.869V481.636ZM488.038 484.318C487.966 480.79 482.242 482.068 482.242 479.728C482.242 478.936 482.962 478.36 484.168 478.36C485.482 478.36 486.238 479.08 486.31 480.07H487.948C487.84 478.144 486.4 476.974 484.222 476.974C482.026 476.974 480.604 478.216 480.604 479.728C480.604 483.4 486.436 482.122 486.436 484.318C486.436 485.128 485.716 485.776 484.42 485.776C483.034 485.776 482.188 485.056 482.098 484.102H480.406C480.514 485.902 482.134 487.162 484.438 487.162C486.616 487.162 488.038 485.938 488.038 484.318ZM490.908 483.454H492.276L492.474 474.454H490.71L490.908 483.454ZM492.744 485.992C492.744 485.362 492.258 484.876 491.664 484.876C491.034 484.876 490.548 485.362 490.548 485.992C490.548 486.622 491.034 487.108 491.664 487.108C492.258 487.108 492.744 486.622 492.744 485.992Z" fill="white"/>
<g filter="url(#filter1_d_8_22)">
<circle cx="133" cy="426" r="103" fill="black"/>
<path d="M75.6765 393.31C72.1485 393.31 69.3765 395.956 69.3765 399.718C69.3765 403.48 72.1485 406.108 75.6765 406.108C79.0785 406.108 81.5445 403.606 81.8325 400.492V399.232H75.0825V400.564H80.0865C79.8345 403.048 78.1425 404.632 75.6765 404.632C73.0305 404.632 71.0505 402.724 71.0505 399.718C71.0505 396.694 73.0305 394.786 75.6765 394.786C77.4405 394.786 78.8085 395.632 79.4925 397.09H81.4545C80.5185 394.678 78.3225 393.31 75.6765 393.31ZM88.1923 397.36C89.8843 397.36 91.3243 398.422 91.3063 400.348H85.0783C85.2583 398.422 86.5903 397.36 88.1923 397.36ZM92.8003 402.958H91.0363C90.6763 404.02 89.7403 404.776 88.2643 404.776C86.5903 404.776 85.1863 403.678 85.0603 401.68H92.9443C92.9803 401.338 92.9983 401.05 92.9983 400.69C92.9983 397.99 91.1263 395.974 88.2643 395.974C85.3843 395.974 83.3863 397.936 83.3863 401.05C83.3863 404.182 85.4563 406.162 88.2643 406.162C90.7123 406.162 92.2963 404.758 92.8003 402.958ZM95.5204 403.3C95.5204 405.28 96.5104 406 98.2564 406H99.7324V404.614H98.5264C97.5184 404.614 97.1584 404.272 97.1584 403.3V397.486H99.7324V396.136H97.1584V393.652H95.5204V396.136H94.2424V397.486H95.5204V403.3ZM108.154 397.954V396.136H106.516V410.68H108.154V404.182C108.766 405.19 110.044 406.162 111.844 406.162C114.49 406.162 116.524 404.092 116.524 401.032C116.524 397.954 114.49 395.974 111.844 395.974C110.044 395.974 108.748 396.91 108.154 397.954ZM114.85 401.032C114.85 403.354 113.32 404.722 111.502 404.722C109.72 404.722 108.154 403.372 108.154 401.05C108.154 398.764 109.72 397.396 111.502 397.396C113.32 397.396 114.85 398.71 114.85 401.032ZM118.068 401.032C118.068 404.092 120.102 406.162 122.73 406.162C124.548 406.162 125.826 405.226 126.42 404.164V406H128.076V396.136H126.42V397.936C125.844 396.91 124.584 395.974 122.748 395.974C120.102 395.974 118.068 397.954 118.068 401.032ZM126.42 401.05C126.42 403.372 124.872 404.722 123.072 404.722C121.272 404.722 119.742 403.354 119.742 401.032C119.742 398.71 121.272 397.396 123.072 397.396C124.872 397.396 126.42 398.764 126.42 401.05ZM130.844 406H132.482V396.136H130.844V406ZM131.69 394.534C132.284 394.534 132.77 394.048 132.77 393.418C132.77 392.788 132.284 392.302 131.69 392.302C131.06 392.302 130.574 392.788 130.574 393.418C130.574 394.048 131.06 394.534 131.69 394.534ZM134.662 401.032C134.662 404.092 136.696 406.162 139.342 406.162C141.142 406.162 142.42 405.244 143.014 404.146V406H144.67V392.68H143.014V397.9C142.33 396.766 140.908 395.974 139.36 395.974C136.696 395.974 134.662 397.954 134.662 401.032ZM143.014 401.05C143.014 403.372 141.466 404.722 139.666 404.722C137.866 404.722 136.336 403.354 136.336 401.032C136.336 398.71 137.866 397.396 139.666 397.396C141.466 397.396 143.014 398.764 143.014 401.05ZM152.597 403.3C152.597 405.28 153.587 406 155.333 406H156.809V404.614H155.603C154.595 404.614 154.235 404.272 154.235 403.3V397.486H156.809V396.136H154.235V393.652H152.597V396.136H151.319V397.486H152.597V403.3ZM168.153 401.05C168.153 397.936 165.975 395.974 163.167 395.974C160.377 395.974 158.181 397.936 158.181 401.05C158.181 404.182 160.305 406.162 163.095 406.162C165.903 406.162 168.153 404.182 168.153 401.05ZM159.855 401.05C159.855 398.566 161.421 397.396 163.149 397.396C164.841 397.396 166.479 398.566 166.479 401.05C166.479 403.552 164.805 404.722 163.095 404.722C161.385 404.722 159.855 403.552 159.855 401.05ZM174.494 401.032C174.494 404.092 176.528 406.162 179.174 406.162C180.974 406.162 182.252 405.244 182.846 404.146V406H184.502V392.68H182.846V397.9C182.162 396.766 180.74 395.974 179.192 395.974C176.528 395.974 174.494 397.954 174.494 401.032ZM182.846 401.05C182.846 403.372 181.298 404.722 179.498 404.722C177.698 404.722 176.168 403.354 176.168 401.032C176.168 398.71 177.698 397.396 179.498 397.396C181.298 397.396 182.846 398.764 182.846 401.05ZM196.63 401.05C196.63 397.936 194.452 395.974 191.644 395.974C188.854 395.974 186.658 397.936 186.658 401.05C186.658 404.182 188.782 406.162 191.572 406.162C194.38 406.162 196.63 404.182 196.63 401.05ZM188.332 401.05C188.332 398.566 189.898 397.396 191.626 397.396C193.318 397.396 194.956 398.566 194.956 401.05C194.956 403.552 193.282 404.722 191.572 404.722C189.862 404.722 188.332 403.552 188.332 401.05ZM72.0464 433H73.7384L76.1144 425.17L78.4904 433H80.1824L83.2604 423.136H81.6404L79.4084 431.434L77.0144 423.136H75.3404L72.8924 431.416L70.6244 423.136H68.9504L72.0464 433ZM84.886 433H86.524V427.546C86.524 425.422 87.676 424.378 89.35 424.378C91.006 424.378 92.104 425.404 92.104 427.42V433H93.724V427.186C93.724 424.36 91.978 422.956 89.782 422.956C88.396 422.956 87.172 423.514 86.524 424.558V419.68H84.886V433ZM95.7877 428.032C95.7877 431.092 97.8217 433.162 100.45 433.162C102.268 433.162 103.546 432.226 104.14 431.164V433H105.796V423.136H104.14V424.936C103.564 423.91 102.304 422.974 100.468 422.974C97.8217 422.974 95.7877 424.954 95.7877 428.032ZM104.14 428.05C104.14 430.372 102.592 431.722 100.792 431.722C98.9917 431.722 97.4617 430.354 97.4617 428.032C97.4617 425.71 98.9917 424.396 100.792 424.396C102.592 424.396 104.14 425.764 104.14 428.05ZM108.924 430.3C108.924 432.28 109.914 433 111.66 433H113.136V431.614H111.93C110.922 431.614 110.562 431.272 110.562 430.3V424.486H113.136V423.136H110.562V420.652H108.924V423.136H107.646V424.486H108.924V430.3ZM123.663 431.128L120.567 423.136H118.749L122.727 432.892L120.783 437.644H122.475L128.415 423.136H126.723L123.663 431.128ZM139.422 428.05C139.422 424.936 137.244 422.974 134.436 422.974C131.646 422.974 129.45 424.936 129.45 428.05C129.45 431.182 131.574 433.162 134.364 433.162C137.172 433.162 139.422 431.182 139.422 428.05ZM131.124 428.05C131.124 425.566 132.69 424.396 134.418 424.396C136.11 424.396 137.748 425.566 137.748 428.05C137.748 430.552 136.074 431.722 134.364 431.722C132.654 431.722 131.124 430.552 131.124 428.05ZM150.323 423.136H148.685V428.554C148.685 430.678 147.551 431.722 145.859 431.722C144.203 431.722 143.105 430.696 143.105 428.698V423.136H141.485V428.914C141.485 431.74 143.267 433.144 145.535 433.144C146.849 433.144 148.055 432.568 148.685 431.542V433H150.323V423.136ZM157.888 433H159.526V419.68H157.888V433ZM171.678 428.05C171.678 424.936 169.5 422.974 166.692 422.974C163.902 422.974 161.706 424.936 161.706 428.05C161.706 431.182 163.83 433.162 166.62 433.162C169.428 433.162 171.678 431.182 171.678 428.05ZM163.38 428.05C163.38 425.566 164.946 424.396 166.674 424.396C168.366 424.396 170.004 425.566 170.004 428.05C170.004 430.552 168.33 431.722 166.62 431.722C164.91 431.722 163.38 430.552 163.38 428.05ZM172.661 423.136L176.531 433H178.439L182.309 423.136H180.563L177.503 431.488L174.425 423.136H172.661ZM188.115 424.36C189.807 424.36 191.247 425.422 191.229 427.348H185.001C185.181 425.422 186.513 424.36 188.115 424.36ZM192.723 429.958H190.959C190.599 431.02 189.663 431.776 188.187 431.776C186.513 431.776 185.109 430.678 184.983 428.68H192.867C192.903 428.338 192.921 428.05 192.921 427.69C192.921 424.99 191.049 422.974 188.187 422.974C185.307 422.974 183.309 424.936 183.309 428.05C183.309 431.182 185.379 433.162 188.187 433.162C190.635 433.162 192.219 431.758 192.723 429.958ZM193.661 435.574H194.759L196.775 430.732H194.975L193.661 435.574ZM78.1041 455.05C78.1041 458.182 80.1021 460.162 82.9101 460.162C85.3581 460.162 86.9601 458.794 87.4641 456.832H85.7001C85.3401 458.074 84.3681 458.776 82.9101 458.776C81.1101 458.776 79.7781 457.498 79.7781 455.05C79.7781 452.638 81.1101 451.36 82.9101 451.36C84.3681 451.36 85.3581 452.116 85.7001 453.304H87.4641C86.9601 451.234 85.3581 449.974 82.9101 449.974C80.1021 449.974 78.1041 451.954 78.1041 455.05ZM99.0097 455.05C99.0097 451.936 96.8317 449.974 94.0237 449.974C91.2337 449.974 89.0377 451.936 89.0377 455.05C89.0377 458.182 91.1617 460.162 93.9517 460.162C96.7597 460.162 99.0097 458.182 99.0097 455.05ZM90.7117 455.05C90.7117 452.566 92.2777 451.396 94.0057 451.396C95.6977 451.396 97.3357 452.566 97.3357 455.05C97.3357 457.552 95.6617 458.722 93.9517 458.722C92.2417 458.722 90.7117 457.552 90.7117 455.05ZM108.381 460H110.001V454.186C110.001 451.36 108.255 449.956 105.969 449.956C104.637 449.956 103.449 450.514 102.801 451.54V450.136H101.163V460H102.801V454.546C102.801 452.422 103.953 451.378 105.627 451.378C107.283 451.378 108.381 452.404 108.381 454.42V460ZM119.769 457.318C119.697 453.79 113.973 455.068 113.973 452.728C113.973 451.936 114.693 451.36 115.899 451.36C117.213 451.36 117.969 452.08 118.041 453.07H119.679C119.571 451.144 118.131 449.974 115.953 449.974C113.757 449.974 112.335 451.216 112.335 452.728C112.335 456.4 118.167 455.122 118.167 457.318C118.167 458.128 117.447 458.776 116.151 458.776C114.765 458.776 113.919 458.056 113.829 457.102H112.137C112.245 458.902 113.865 460.162 116.169 460.162C118.347 460.162 119.769 458.938 119.769 457.318ZM122.081 460H123.719V450.136H122.081V460ZM122.927 448.534C123.521 448.534 124.007 448.048 124.007 447.418C124.007 446.788 123.521 446.302 122.927 446.302C122.297 446.302 121.811 446.788 121.811 447.418C121.811 448.048 122.297 448.534 122.927 448.534ZM133.603 457.318C133.531 453.79 127.807 455.068 127.807 452.728C127.807 451.936 128.527 451.36 129.733 451.36C131.047 451.36 131.803 452.08 131.875 453.07H133.513C133.405 451.144 131.965 449.974 129.787 449.974C127.591 449.974 126.169 451.216 126.169 452.728C126.169 456.4 132.001 455.122 132.001 457.318C132.001 458.128 131.281 458.776 129.985 458.776C128.599 458.776 127.753 458.056 127.663 457.102H125.971C126.079 458.902 127.699 460.162 130.003 460.162C132.181 460.162 133.603 458.938 133.603 457.318ZM136.275 457.3C136.275 459.28 137.265 460 139.011 460H140.487V458.614H139.281C138.273 458.614 137.913 458.272 137.913 457.3V451.486H140.487V450.136H137.913V447.652H136.275V450.136H134.997V451.486H136.275V457.3ZM146.666 451.36C148.358 451.36 149.798 452.422 149.78 454.348H143.552C143.732 452.422 145.064 451.36 146.666 451.36ZM151.274 456.958H149.51C149.15 458.02 148.214 458.776 146.738 458.776C145.064 458.776 143.66 457.678 143.534 455.68H151.418C151.454 455.338 151.472 455.05 151.472 454.69C151.472 451.99 149.6 449.974 146.738 449.974C143.858 449.974 141.86 451.936 141.86 455.05C141.86 458.182 143.93 460.162 146.738 460.162C149.186 460.162 150.77 458.758 151.274 456.958ZM160.852 460H162.472V454.186C162.472 451.36 160.726 449.956 158.44 449.956C157.108 449.956 155.92 450.514 155.272 451.54V450.136H153.634V460H155.272V454.546C155.272 452.422 156.424 451.378 158.098 451.378C159.754 451.378 160.852 452.404 160.852 454.42V460ZM165.508 457.3C165.508 459.28 166.498 460 168.244 460H169.72V458.614H168.514C167.506 458.614 167.146 458.272 167.146 457.3V451.486H169.72V450.136H167.146V447.652H165.508V450.136H164.23V451.486H165.508V457.3ZM171.704 460H173.342V446.68H171.704V460ZM179.878 458.128L176.782 450.136H174.964L178.942 459.892L176.998 464.644H178.69L184.63 450.136H182.938L179.878 458.128ZM187.879 458.992C187.879 458.362 187.393 457.876 186.799 457.876C186.169 457.876 185.683 458.362 185.683 458.992C185.683 459.622 186.169 460.108 186.799 460.108C187.393 460.108 187.879 459.622 187.879 458.992Z" fill="white"/>
</g>
<g filter="url(#filter2_d_8_22)">
<circle cx="300" cy="151" r="103" fill="black"/>
<path d="M279.448 90.786H282.886V102H284.524V90.786H287.944V89.454H279.448V90.786ZM289.348 97.032C289.348 100.092 291.382 102.162 294.01 102.162C295.828 102.162 297.106 101.226 297.7 100.164V102H299.356V92.136H297.7V93.936C297.124 92.91 295.864 91.974 294.028 91.974C291.382 91.974 289.348 93.954 289.348 97.032ZM297.7 97.05C297.7 99.372 296.152 100.722 294.352 100.722C292.552 100.722 291.022 99.354 291.022 97.032C291.022 94.71 292.552 93.396 294.352 93.396C296.152 93.396 297.7 94.764 297.7 97.05ZM302.124 102H303.762V97.644L307.632 102H309.864L305.202 97.05L309.846 92.136H307.56L303.762 96.51V88.68H302.124V102ZM315.582 93.36C317.274 93.36 318.714 94.422 318.696 96.348H312.468C312.648 94.422 313.98 93.36 315.582 93.36ZM320.19 98.958H318.426C318.066 100.02 317.13 100.776 315.654 100.776C313.98 100.776 312.576 99.678 312.45 97.68H320.334C320.37 97.338 320.388 97.05 320.388 96.69C320.388 93.99 318.516 91.974 315.654 91.974C312.774 91.974 310.776 93.936 310.776 97.05C310.776 100.182 312.846 102.162 315.654 102.162C318.102 102.162 319.686 100.758 320.19 98.958ZM239.585 124.032C239.585 127.092 241.619 129.162 244.247 129.162C246.065 129.162 247.343 128.226 247.937 127.164V129H249.593V119.136H247.937V120.936C247.361 119.91 246.101 118.974 244.265 118.974C241.619 118.974 239.585 120.954 239.585 124.032ZM247.937 124.05C247.937 126.372 246.389 127.722 244.589 127.722C242.789 127.722 241.259 126.354 241.259 124.032C241.259 121.71 242.789 120.396 244.589 120.396C246.389 120.396 247.937 121.764 247.937 124.05ZM251.749 124.032C251.749 127.092 253.783 129.162 256.429 129.162C258.229 129.162 259.507 128.244 260.101 127.146V129H261.757V115.68H260.101V120.9C259.417 119.766 257.995 118.974 256.447 118.974C253.783 118.974 251.749 120.954 251.749 124.032ZM260.101 124.05C260.101 126.372 258.553 127.722 256.753 127.722C254.953 127.722 253.423 126.354 253.423 124.032C253.423 121.71 254.953 120.396 256.753 120.396C258.553 120.396 260.101 121.764 260.101 124.05ZM263.355 119.136L267.225 129H269.133L273.003 119.136H271.257L268.197 127.488L265.119 119.136H263.355ZM274.003 124.032C274.003 127.092 276.037 129.162 278.665 129.162C280.483 129.162 281.761 128.226 282.355 127.164V129H284.011V119.136H282.355V120.936C281.779 119.91 280.519 118.974 278.683 118.974C276.037 118.974 274.003 120.954 274.003 124.032ZM282.355 124.05C282.355 126.372 280.807 127.722 279.007 127.722C277.207 127.722 275.677 126.354 275.677 124.032C275.677 121.71 277.207 120.396 279.007 120.396C280.807 120.396 282.355 121.764 282.355 124.05ZM293.997 129H295.617V123.186C295.617 120.36 293.871 118.956 291.585 118.956C290.253 118.956 289.065 119.514 288.417 120.54V119.136H286.779V129H288.417V123.546C288.417 121.422 289.569 120.378 291.243 120.378C292.899 120.378 293.997 121.404 293.997 123.42V129ZM298.652 126.3C298.652 128.28 299.642 129 301.388 129H302.864V127.614H301.658C300.65 127.614 300.29 127.272 300.29 126.3V120.486H302.864V119.136H300.29V116.652H298.652V119.136H297.374V120.486H298.652V126.3ZM304.237 124.032C304.237 127.092 306.271 129.162 308.899 129.162C310.717 129.162 311.995 128.226 312.589 127.164V129H314.245V119.136H312.589V120.936C312.013 119.91 310.753 118.974 308.917 118.974C306.271 118.974 304.237 120.954 304.237 124.032ZM312.589 124.05C312.589 126.372 311.041 127.722 309.241 127.722C307.441 127.722 305.911 126.354 305.911 124.032C305.911 121.71 307.441 120.396 309.241 120.396C311.041 120.396 312.589 121.764 312.589 124.05ZM316.401 124.032C316.401 127.092 318.435 129.162 321.081 129.162C322.881 129.162 324.159 128.208 324.753 127.146V129.216C324.753 131.322 323.439 132.438 321.693 132.438C320.073 132.438 318.903 131.628 318.543 130.44H316.923C317.247 132.546 319.101 133.86 321.693 133.86C324.591 133.86 326.409 131.934 326.409 129.216V119.136H324.753V120.936C324.177 119.874 322.881 118.974 321.081 118.974C318.435 118.974 316.401 120.954 316.401 124.032ZM324.753 124.05C324.753 126.372 323.205 127.722 321.405 127.722C319.605 127.722 318.075 126.354 318.075 124.032C318.075 121.71 319.605 120.396 321.405 120.396C323.205 120.396 324.753 121.764 324.753 124.05ZM333.371 120.36C335.063 120.36 336.503 121.422 336.485 123.348H330.257C330.437 121.422 331.769 120.36 333.371 120.36ZM337.979 125.958H336.215C335.855 127.02 334.919 127.776 333.443 127.776C331.769 127.776 330.365 126.678 330.239 124.68H338.123C338.159 124.338 338.177 124.05 338.177 123.69C338.177 120.99 336.305 118.974 333.443 118.974C330.563 118.974 328.565 120.936 328.565 124.05C328.565 127.182 330.635 129.162 333.443 129.162C335.891 129.162 337.475 127.758 337.979 125.958ZM354.498 124.05C354.498 120.936 352.32 118.974 349.512 118.974C346.722 118.974 344.526 120.936 344.526 124.05C344.526 127.182 346.65 129.162 349.44 129.162C352.248 129.162 354.498 127.182 354.498 124.05ZM346.2 124.05C346.2 121.566 347.766 120.396 349.494 120.396C351.186 120.396 352.824 121.566 352.824 124.05C352.824 126.552 351.15 127.722 349.44 127.722C347.73 127.722 346.2 126.552 346.2 124.05ZM356.958 129H358.596V120.486H360.666V119.136H358.596V118.434C358.596 117.156 359.082 116.616 360.558 116.616V115.248C358.038 115.248 356.958 116.238 356.958 118.434V119.136H355.68V120.486H356.958V129ZM251.631 151.05C251.631 147.936 249.453 145.974 246.645 145.974C243.855 145.974 241.659 147.936 241.659 151.05C241.659 154.182 243.783 156.162 246.573 156.162C249.381 156.162 251.631 154.182 251.631 151.05ZM243.333 151.05C243.333 148.566 244.899 147.396 246.627 147.396C248.319 147.396 249.957 148.566 249.957 151.05C249.957 153.552 248.283 154.722 246.573 154.722C244.863 154.722 243.333 153.552 243.333 151.05ZM262.532 146.136H260.894V151.554C260.894 153.678 259.76 154.722 258.068 154.722C256.412 154.722 255.314 153.696 255.314 151.698V146.136H253.694V151.914C253.694 154.74 255.476 156.144 257.744 156.144C259.058 156.144 260.264 155.568 260.894 154.542V156H262.532V146.136ZM266.936 150.636C266.936 148.35 268.124 147.648 269.69 147.648H270.122V145.956C268.556 145.956 267.494 146.64 266.936 147.738V146.136H265.298V156H266.936V150.636ZM285.56 146.136H283.922V151.554C283.922 153.678 282.788 154.722 281.096 154.722C279.44 154.722 278.342 153.696 278.342 151.698V146.136H276.722V151.914C276.722 154.74 278.504 156.144 280.772 156.144C282.086 156.144 283.292 155.568 283.922 154.542V156H285.56V146.136ZM295.417 153.318C295.345 149.79 289.621 151.068 289.621 148.728C289.621 147.936 290.341 147.36 291.547 147.36C292.861 147.36 293.617 148.08 293.689 149.07H295.327C295.219 147.144 293.779 145.974 291.601 145.974C289.405 145.974 287.983 147.216 287.983 148.728C287.983 152.4 293.815 151.122 293.815 153.318C293.815 154.128 293.095 154.776 291.799 154.776C290.413 154.776 289.567 154.056 289.477 153.102H287.785C287.893 154.902 289.513 156.162 291.817 156.162C293.995 156.162 295.417 154.938 295.417 153.318ZM301.924 147.36C303.616 147.36 305.056 148.422 305.038 150.348H298.81C298.99 148.422 300.322 147.36 301.924 147.36ZM306.532 152.958H304.768C304.408 154.02 303.472 154.776 301.996 154.776C300.322 154.776 298.918 153.678 298.792 151.68H306.676C306.712 151.338 306.73 151.05 306.73 150.69C306.73 147.99 304.858 145.974 301.996 145.974C299.116 145.974 297.118 147.936 297.118 151.05C297.118 154.182 299.188 156.162 301.996 156.162C304.444 156.162 306.028 154.758 306.532 152.958ZM310.53 150.636C310.53 148.35 311.718 147.648 313.284 147.648H313.716V145.956C312.15 145.956 311.088 146.64 310.53 147.738V146.136H308.892V156H310.53V150.636ZM317.245 147.972V142.68H315.607V156H317.245V154.182C317.857 155.262 319.135 156.162 320.935 156.162C323.581 156.162 325.615 154.092 325.615 151.032C325.615 147.954 323.599 145.974 320.935 145.974C319.189 145.974 317.875 146.874 317.245 147.972ZM323.941 151.032C323.941 153.354 322.411 154.722 320.593 154.722C318.811 154.722 317.245 153.372 317.245 151.05C317.245 148.764 318.811 147.396 320.593 147.396C322.411 147.396 323.941 148.71 323.941 151.032ZM327.159 151.032C327.159 154.092 329.193 156.162 331.821 156.162C333.639 156.162 334.917 155.226 335.511 154.164V156H337.167V146.136H335.511V147.936C334.935 146.91 333.675 145.974 331.839 145.974C329.193 145.974 327.159 147.954 327.159 151.032ZM335.511 151.05C335.511 153.372 333.963 154.722 332.163 154.722C330.363 154.722 328.833 153.354 328.833 151.032C328.833 148.71 330.363 147.396 332.163 147.396C333.963 147.396 335.511 148.764 335.511 151.05ZM347.027 153.318C346.955 149.79 341.231 151.068 341.231 148.728C341.231 147.936 341.951 147.36 343.157 147.36C344.471 147.36 345.227 148.08 345.299 149.07H346.937C346.829 147.144 345.389 145.974 343.211 145.974C341.015 145.974 339.593 147.216 339.593 148.728C339.593 152.4 345.425 151.122 345.425 153.318C345.425 154.128 344.705 154.776 343.409 154.776C342.023 154.776 341.177 154.056 341.087 153.102H339.395C339.503 154.902 341.123 156.162 343.427 156.162C345.605 156.162 347.027 154.938 347.027 153.318ZM353.533 147.36C355.225 147.36 356.665 148.422 356.647 150.348H350.419C350.599 148.422 351.931 147.36 353.533 147.36ZM358.141 152.958H356.377C356.017 154.02 355.081 154.776 353.605 154.776C351.931 154.776 350.527 153.678 350.401 151.68H358.285C358.321 151.338 358.339 151.05 358.339 150.69C358.339 147.99 356.467 145.974 353.605 145.974C350.725 145.974 348.727 147.936 348.727 151.05C348.727 154.182 350.797 156.162 353.605 156.162C356.053 156.162 357.637 154.758 358.141 152.958ZM245.391 180.3C245.391 182.28 246.381 183 248.127 183H249.603V181.614H248.397C247.389 181.614 247.029 181.272 247.029 180.3V174.486H249.603V173.136H247.029V170.652H245.391V173.136H244.113V174.486H245.391V180.3ZM260.947 178.05C260.947 174.936 258.769 172.974 255.961 172.974C253.171 172.974 250.975 174.936 250.975 178.05C250.975 181.182 253.099 183.162 255.889 183.162C258.697 183.162 260.947 181.182 260.947 178.05ZM252.649 178.05C252.649 175.566 254.215 174.396 255.943 174.396C257.635 174.396 259.273 175.566 259.273 178.05C259.273 180.552 257.599 181.722 255.889 181.722C254.179 181.722 252.649 180.552 252.649 178.05ZM267.288 178.032C267.288 181.092 269.322 183.162 271.968 183.162C273.768 183.162 275.046 182.208 275.64 181.146V183.216C275.64 185.322 274.326 186.438 272.58 186.438C270.96 186.438 269.79 185.628 269.43 184.44H267.81C268.134 186.546 269.988 187.86 272.58 187.86C275.478 187.86 277.296 185.934 277.296 183.216V173.136H275.64V174.936C275.064 173.874 273.768 172.974 271.968 172.974C269.322 172.974 267.288 174.954 267.288 178.032ZM275.64 178.05C275.64 180.372 274.092 181.722 272.292 181.722C270.492 181.722 268.962 180.354 268.962 178.032C268.962 175.71 270.492 174.396 272.292 174.396C274.092 174.396 275.64 175.764 275.64 178.05ZM281.702 177.636C281.702 175.35 282.89 174.648 284.456 174.648H284.888V172.956C283.322 172.956 282.26 173.64 281.702 174.738V173.136H280.064V183H281.702V177.636ZM296.139 178.05C296.139 174.936 293.961 172.974 291.153 172.974C288.363 172.974 286.167 174.936 286.167 178.05C286.167 181.182 288.291 183.162 291.081 183.162C293.889 183.162 296.139 181.182 296.139 178.05ZM287.841 178.05C287.841 175.566 289.407 174.396 291.135 174.396C292.827 174.396 294.465 175.566 294.465 178.05C294.465 180.552 292.791 181.722 291.081 181.722C289.371 181.722 287.841 180.552 287.841 178.05ZM300.218 183H301.91L304.286 175.17L306.662 183H308.354L311.432 173.136H309.812L307.58 181.434L305.186 173.136H303.512L301.064 181.416L298.796 173.136H297.122L300.218 183ZM321.601 181.128L318.505 173.136H316.687L320.665 182.892L318.721 187.644H320.413L326.353 173.136H324.661L321.601 181.128ZM337.359 178.05C337.359 174.936 335.181 172.974 332.373 172.974C329.583 172.974 327.387 174.936 327.387 178.05C327.387 181.182 329.511 183.162 332.301 183.162C335.109 183.162 337.359 181.182 337.359 178.05ZM329.061 178.05C329.061 175.566 330.627 174.396 332.355 174.396C334.047 174.396 335.685 175.566 335.685 178.05C335.685 180.552 334.011 181.722 332.301 181.722C330.591 181.722 329.061 180.552 329.061 178.05ZM348.261 173.136H346.623V178.554C346.623 180.678 345.489 181.722 343.797 181.722C342.141 181.722 341.043 180.696 341.043 178.698V173.136H339.423V178.914C339.423 181.74 341.205 183.144 343.473 183.144C344.787 183.144 345.993 182.568 346.623 181.542V183H348.261V173.136ZM352.665 177.636C352.665 175.35 353.853 174.648 355.419 174.648H355.851V172.956C354.285 172.956 353.223 173.64 352.665 174.738V173.136H351.027V183H352.665V177.636ZM258.67 210H260.308V201.486H262.378V200.136H260.308V199.434C260.308 198.156 260.794 197.616 262.27 197.616V196.248C259.75 196.248 258.67 197.238 258.67 199.434V200.136H257.392V201.486H258.67V210ZM273.647 205.05C273.647 201.936 271.469 199.974 268.661 199.974C265.871 199.974 263.675 201.936 263.675 205.05C263.675 208.182 265.799 210.162 268.589 210.162C271.397 210.162 273.647 208.182 273.647 205.05ZM265.349 205.05C265.349 202.566 266.915 201.396 268.643 201.396C270.335 201.396 271.973 202.566 271.973 205.05C271.973 207.552 270.299 208.722 268.589 208.722C266.879 208.722 265.349 207.552 265.349 205.05ZM275.801 210H277.439V196.68H275.801V210ZM280.231 210H281.869V196.68H280.231V210ZM294.02 205.05C294.02 201.936 291.842 199.974 289.034 199.974C286.244 199.974 284.048 201.936 284.048 205.05C284.048 208.182 286.172 210.162 288.962 210.162C291.77 210.162 294.02 208.182 294.02 205.05ZM285.722 205.05C285.722 202.566 287.288 201.396 289.016 201.396C290.708 201.396 292.346 202.566 292.346 205.05C292.346 207.552 290.672 208.722 288.962 208.722C287.252 208.722 285.722 207.552 285.722 205.05ZM298.1 210H299.792L302.168 202.17L304.544 210H306.236L309.314 200.136H307.694L305.462 208.434L303.068 200.136H301.394L298.946 208.416L296.678 200.136H295.004L298.1 210ZM310.94 210H312.578V200.136H310.94V210ZM311.786 198.534C312.38 198.534 312.866 198.048 312.866 197.418C312.866 196.788 312.38 196.302 311.786 196.302C311.156 196.302 310.67 196.788 310.67 197.418C310.67 198.048 311.156 198.534 311.786 198.534ZM322.587 210H324.207V204.186C324.207 201.36 322.461 199.956 320.175 199.956C318.843 199.956 317.655 200.514 317.007 201.54V200.136H315.369V210H317.007V204.546C317.007 202.422 318.159 201.378 319.833 201.378C321.489 201.378 322.587 202.404 322.587 204.42V210ZM326.271 205.032C326.271 208.092 328.305 210.162 330.951 210.162C332.751 210.162 334.029 209.208 334.623 208.146V210.216C334.623 212.322 333.309 213.438 331.563 213.438C329.943 213.438 328.773 212.628 328.413 211.44H326.793C327.117 213.546 328.971 214.86 331.563 214.86C334.461 214.86 336.279 212.934 336.279 210.216V200.136H334.623V201.936C334.047 200.874 332.751 199.974 330.951 199.974C328.305 199.974 326.271 201.954 326.271 205.032ZM334.623 205.05C334.623 207.372 333.075 208.722 331.275 208.722C329.475 208.722 327.945 207.354 327.945 205.032C327.945 202.71 329.475 201.396 331.275 201.396C333.075 201.396 334.623 202.764 334.623 205.05ZM339.605 206.454H340.973L341.171 197.454H339.407L339.605 206.454ZM341.441 208.992C341.441 208.362 340.955 207.876 340.361 207.876C339.731 207.876 339.245 208.362 339.245 208.992C339.245 209.622 339.731 210.108 340.361 210.108C340.955 210.108 341.441 209.622 341.441 208.992Z" fill="white"/>
</g>
</g>
<defs>
<filter id="filter0_d_8_22" x="324" y="283" width="286" height="286" filterUnits="userSpaceOnUse" color-interpolation-filters="sRGB">
<feFlood flood-opacity="0" result="BackgroundImageFix"/>
<feColorMatrix in="SourceAlpha" type="matrix" values="0 0 0 0 0 0 0 0 0 0 0 0 0 0 0 0 0 0 127 0" result="hardAlpha"/>
<feOffset/>
<feGaussianBlur stdDeviation="20"/>
<feComposite in2="hardAlpha" operator="out"/>
<feColorMatrix type="matrix" values="0 0 0 0 0.0117647 0 0 0 0 0.4 0 0 0 0 0.807843 0 0 0 1 0"/>
<feBlend mode="normal" in2="BackgroundImageFix" result="effect1_dropShadow_8_22"/>
<feBlend mode="normal" in="SourceGraphic" in2="effect1_dropShadow_8_22" result="shape"/>
</filter>
<filter id="filter1_d_8_22" x="-10" y="283" width="286" height="286" filterUnits="userSpaceOnUse" color-interpolation-filters="sRGB">
<feFlood flood-opacity="0" result="BackgroundImageFix"/>
<feColorMatrix in="SourceAlpha" type="matrix" values="0 0 0 0 0 0 0 0 0 0 0 0 0 0 0 0 0 0 127 0" result="hardAlpha"/>
<feOffset/>
<feGaussianBlur stdDeviation="20"/>
<feComposite in2="hardAlpha" operator="out"/>
<feColorMatrix type="matrix" values="0 0 0 0 0.0117647 0 0 0 0 0.4 0 0 0 0 0.807843 0 0 0 1 0"/>
<feBlend mode="normal" in2="BackgroundImageFix" result="effect1_dropShadow_8_22"/>
<feBlend mode="normal" in="SourceGraphic" in2="effect1_dropShadow_8_22" result="shape"/>
</filter>
<filter id="filter2_d_8_22" x="157" y="8" width="286" height="286" filterUnits="userSpaceOnUse" color-interpolation-filters="sRGB">
<feFlood flood-opacity="0" result="BackgroundImageFix"/>
<feColorMatrix in="SourceAlpha" type="matrix" values="0 0 0 0 0 0 0 0 0 0 0 0 0 0 0 0 0 0 127 0" result="hardAlpha"/>
<feOffset/>
<feGaussianBlur stdDeviation="20"/>
<feComposite in2="hardAlpha" operator="out"/>
<feColorMatrix type="matrix" values="0 0 0 0 0.0117647 0 0 0 0 0.4 0 0 0 0 0.807843 0 0 0 1 0"/>
<feBlend mode="normal" in2="BackgroundImageFix" result="effect1_dropShadow_8_22"/>
<feBlend mode="normal" in="SourceGraphic" in2="effect1_dropShadow_8_22" result="shape"/>
</filter>
<clipPath id="clip0_8_22">
<rect width="600" height="600" fill="white"/>
</clipPath>
</defs>
</svg>
